<svg width="812" height="812" viewBox="0 0 812 812" fill="none" xmlns="http://www.w3.org/2000/svg">
<path d="M416.36 801.64C634.866 795.918 807.361 614.146 801.64 395.64C795.918 177.134 614.145 4.63856 395.64 10.3603C177.134 16.0821 4.63842 197.855 10.3602 416.36C16.082 634.866 197.854 807.362 416.36 801.64Z" fill="white" stroke="#231F20" stroke-width="4.57932"/>
<path d="M405.997 32.7087C199.849 32.7087 32.7041 199.854 32.7041 406.002C32.7041 612.15 199.849 779.295 405.997 779.295C612.146 779.295 779.291 612.15 779.291 406.002C779.291 199.854 612.146 32.7087 405.997 32.7087ZM405.997 707.901C239.267 707.901 104.098 572.713 104.098 405.982C104.098 239.252 239.287 104.063 405.997 104.063C572.708 104.063 707.917 239.252 707.917 405.982C707.917 572.713 572.728 707.901 405.997 707.901Z" fill="#BE1E2D"/>
<path d="M405.999 135.487C256.599 135.487 135.504 256.602 135.504 405.982C135.504 555.363 256.619 676.478 405.999 676.478C555.38 676.478 676.495 555.363 676.495 405.982C676.495 256.602 555.38 135.487 405.999 135.487ZM405.999 511.287C347.85 511.287 300.695 464.132 300.695 405.982C300.695 347.833 347.85 300.678 405.999 300.678C464.149 300.678 511.304 347.833 511.304 405.982C511.304 464.132 464.149 511.287 405.999 511.287Z" fill="#BE1E2D"/>
<path d="M631.788 434.327C661.178 411.331 673.041 387.29 673.041 387.29C658.395 369.782 642.585 356.755 626.498 347.083C637.927 325.074 643.572 303.56 646.059 286.96C631.808 276.419 611.655 268.346 588.245 264.774C589.982 241.107 587.061 220.007 583.153 204.255C565.625 199.874 543.459 200.209 519.99 206.19C512.588 183.451 501.81 164.897 492.158 151.751C474.808 154.317 455.09 162.647 436.18 176.385C421.751 160.12 406.158 148.218 393.209 140.263C376.965 149.284 360.602 165.252 347.554 186.313C315.776 169.516 288.576 165.509 288.576 165.509C277.384 185.366 270.91 204.966 267.732 223.757C231.887 220.086 205.912 227.192 205.912 227.192C202.99 250.799 204.451 271.978 208.714 290.848C175.159 301.704 154.078 318.403 154.078 318.403C159.447 340.944 169.218 359.735 181.298 375.447C153.072 398.403 139.63 422.069 139.63 422.069C154.453 439.025 170.382 451.874 186.509 461.605C168.251 494.332 165.211 522.459 165.211 522.459C187.614 533.354 208.793 539.631 228.473 542.651C224.426 578.319 230.821 604.472 230.821 604.472C254.389 605.992 275.332 603.919 293.925 599.557C304.11 634.692 320.691 656.305 320.691 656.305C343.133 649.634 361.806 640.1 377.34 629.007C400.454 657.233 424.357 672.056 424.357 672.056C442.575 655.693 456.175 638.975 466.34 622.513C497.764 639.37 524.746 643.85 524.746 643.85C535.089 623.401 541.149 603.761 544.209 585.247C581.514 588.977 608.714 580.194 608.714 580.194C610.727 556.527 608.793 535.526 604.332 516.912C637.71 506.787 659.224 491.608 659.224 491.608C651.98 468.731 642.467 449.92 631.749 434.327H631.788ZM406 511.287C347.851 511.287 300.695 464.132 300.695 405.982C300.695 347.833 347.851 300.678 406 300.678C464.15 300.678 511.305 347.833 511.305 405.982C511.305 464.132 464.15 511.287 406 511.287Z" fill="white"/>
<path d="M432.963 409.476C436.436 406.752 437.838 403.929 437.838 403.929C436.101 401.857 434.246 400.317 432.351 399.172C433.693 396.587 434.364 394.04 434.66 392.067C432.982 390.823 430.594 389.876 427.831 389.441C428.028 386.639 427.692 384.152 427.219 382.296C425.146 381.783 422.541 381.822 419.757 382.513C418.889 379.829 417.606 377.638 416.481 376.078C414.428 376.375 412.099 377.362 409.869 378.98C408.171 377.065 406.316 375.664 404.796 374.716C402.881 375.782 400.947 377.677 399.407 380.164C395.657 378.171 392.44 377.717 392.44 377.717C391.117 380.066 390.347 382.375 389.972 384.586C385.748 384.151 382.669 384.981 382.669 384.981C382.314 387.764 382.491 390.27 383.005 392.501C379.037 393.784 376.55 395.758 376.55 395.758C377.182 398.422 378.346 400.633 379.767 402.488C376.432 405.193 374.853 407.996 374.853 407.996C376.609 409.989 378.484 411.509 380.379 412.654C378.228 416.523 377.853 419.839 377.853 419.839C380.498 421.122 383.004 421.872 385.314 422.227C384.84 426.431 385.59 429.53 385.59 429.53C388.373 429.708 390.841 429.451 393.032 428.938C394.236 433.083 396.19 435.629 396.19 435.629C398.835 434.84 401.045 433.715 402.881 432.412C405.605 435.748 408.428 437.485 408.428 437.485C410.579 435.55 412.178 433.577 413.382 431.642C417.093 433.636 420.271 434.169 420.271 434.169C421.494 431.761 422.205 429.432 422.56 427.241C426.962 427.675 430.179 426.648 430.179 426.648C430.416 423.845 430.179 421.378 429.666 419.167C433.614 417.963 436.14 416.187 436.14 416.187C435.292 413.483 434.167 411.272 432.903 409.417L432.963 409.476ZM406.296 418.575C399.427 418.575 393.861 413.009 393.861 406.14C393.861 399.271 399.427 393.705 406.296 393.705C413.165 393.705 418.731 399.271 418.731 406.14C418.731 413.009 413.165 418.575 406.296 418.575Z" fill="#BE1E2D"/>
<path d="M509.816 423.016C519.284 365.634 480.443 311.441 423.061 301.972C365.679 292.503 311.485 331.345 302.017 388.727C292.548 446.109 331.389 500.302 388.772 509.771C446.154 519.24 500.347 480.398 509.816 423.016Z" stroke="#231F20" stroke-width="2.28966"/>
<path d="M447.333 447.313C470.158 424.488 470.158 387.483 447.333 364.658C424.509 341.834 387.503 341.834 364.679 364.658C341.854 387.483 341.854 424.489 364.679 447.313C387.503 470.137 424.509 470.137 447.333 447.313Z" stroke="#231F20" stroke-width="1.26326"/>
<path d="M439.81 405.982C439.81 424.655 424.671 439.794 405.998 439.794C387.326 439.794 372.187 424.655 372.187 405.982C372.187 387.31 387.326 372.17 405.998 372.17C424.671 372.17 439.81 387.31 439.81 405.982Z" stroke="#231F20" stroke-width="0.730322"/>
<path d="M405.997 414.667C410.794 414.667 414.682 410.779 414.682 405.982C414.682 401.186 410.794 397.297 405.997 397.297C401.201 397.297 397.312 401.186 397.312 405.982C397.312 410.779 401.201 414.667 405.997 414.667Z" fill="#BE1E2D"/>
<path d="M435.301 435.282C451.48 419.102 451.48 392.869 435.301 376.69C419.121 360.51 392.888 360.51 376.708 376.69C360.529 392.869 360.528 419.102 376.708 435.282C392.888 451.462 419.121 451.462 435.301 435.282Z" stroke="#231F20" stroke-width="0.907968"/>
<path d="M405.998 309.382C352.645 309.382 309.398 352.629 309.398 405.982C309.398 459.335 352.645 502.582 405.998 502.582C459.351 502.582 502.598 459.335 502.598 405.982C502.598 352.629 459.351 309.382 405.998 309.382ZM405.998 470.705C370.252 470.705 341.276 441.729 341.276 405.982C341.276 370.236 370.252 341.26 405.998 341.26C441.745 341.26 470.721 370.236 470.721 405.982C470.721 441.729 441.745 470.705 405.998 470.705Z" fill="#BE1E2D"/>
<path d="M327.281 332.18C303.654 240.653 348.934 164.877 393.227 140.283C431.599 163.91 493.617 221.961 477.866 327.265" stroke="#231F20" stroke-width="2.28966"/>
<path d="M358.704 311.929C371.08 215.467 441.684 159.232 492.175 151.751C519.059 188.405 554.983 266.728 500.781 362.064" stroke="#231F20" stroke-width="2.32914"/>
<path d="M399.068 301.211C447.092 216.908 533.685 191.919 583.149 204.275C594.084 248.351 597.578 334.351 511.321 401.679" stroke="#231F20" stroke-width="2.32914"/>
<path d="M438.884 306.205C515.489 246.634 605.042 256.641 646.058 286.979C639.308 331.884 609.68 412.693 504.238 441.965" stroke="#231F20" stroke-width="2.32914"/>
<path d="M476.208 328.904C476.208 328.904 592.329 290.848 673.04 387.29C673.04 387.29 625.806 483.081 486.058 475.205" stroke="#231F20" stroke-width="2.32914"/>
<path d="M500.485 360.387C500.485 360.387 617.257 359.064 659.261 491.608C659.261 491.608 558.871 562.469 455.225 500.135" stroke="#231F20" stroke-width="2.32914"/>
<path d="M510.989 398.442C510.989 398.442 619.905 448.973 608.753 580.174C608.753 580.174 497.211 616.256 415.869 511.287" stroke="#231F20" stroke-width="2.32914"/>
<path d="M507.04 437.801C507.04 437.801 583.152 528.341 524.746 643.811C524.746 643.811 402.052 623.48 375.168 506.036" stroke="#231F20" stroke-width="2.32914"/>
<path d="M485.386 476.527C485.386 476.527 526.718 580.174 424.374 672.037C424.374 672.037 317.431 605.775 337.111 486.377" stroke="#231F20" stroke-width="2.32914"/>
<path d="M453.252 500.786C453.252 500.786 442.1 620.184 320.728 656.285C320.728 656.285 250.538 565.094 310.227 452.249" stroke="#231F20" stroke-width="2.32914"/>
<path d="M414.545 509.313C414.545 509.313 363.363 612.979 230.839 604.452C230.839 604.452 202.633 489.634 301.7 412.871" stroke="#231F20" stroke-width="2.32914"/>
<path d="M372.541 505.385C372.541 505.385 286.6 581.497 165.229 522.439C165.229 522.439 177.683 404.995 307.602 370.887" stroke="#231F20" stroke-width="2.32914"/>
<path d="M337.113 485.035C337.113 485.035 221.643 515.866 139.63 422.049C139.63 422.049 198.687 317.732 329.889 334.786" stroke="#231F20" stroke-width="2.32914"/>
<path d="M310.881 450.275C310.881 450.275 180.331 428.622 154.079 318.403C154.079 318.403 251.844 240.989 361.412 311.179" stroke="#231F20" stroke-width="2.32914"/>
<path d="M301.03 411.568C301.03 411.568 190.159 354.485 205.891 227.211C205.891 227.211 322.387 194.682 402.427 301.625" stroke="#231F20" stroke-width="2.32914"/>
<path d="M305.627 374.815C305.627 374.815 227.562 273.774 288.573 165.529C288.573 165.529 413.893 183.905 440.776 307.902" stroke="#231F20" stroke-width="2.32914"/>
<path d="M400.768 299.375C400.768 299.375 418.493 271.169 427.02 265.267C427.02 265.267 442.771 301.349 437.521 305.948C437.521 305.948 413.894 298.724 400.787 300.697" fill="#BE1E2D"/>
<path d="M406.495 338.576C413.559 338.576 419.285 332.849 419.285 325.785C419.285 318.721 413.559 312.995 406.495 312.995C399.431 312.995 393.704 318.721 393.704 325.785C393.704 332.849 399.431 338.576 406.495 338.576Z" fill="white"/>
<path d="M445.988 335.023C443.56 341.655 436.217 345.089 429.585 342.661C422.953 340.234 419.538 332.891 421.947 326.259C424.374 319.627 431.717 316.212 438.349 318.62C444.981 321.028 448.396 328.391 445.988 335.023Z" fill="white"/>
<path d="M467.92 352.846C463.36 358.255 455.307 358.946 449.899 354.406C444.49 349.846 443.799 341.793 448.339 336.385C452.879 330.976 460.952 330.285 466.361 334.825C471.769 339.365 472.46 347.438 467.92 352.846Z" fill="white"/>
<path d="M482.405 377.105C476.287 380.618 468.45 378.506 464.937 372.387C461.424 366.249 463.536 358.432 469.655 354.919C475.773 351.406 483.61 353.518 487.123 359.636C490.656 365.755 488.544 373.592 482.405 377.105Z" fill="white"/>
<path d="M487.718 404.857C480.75 406.061 474.138 401.403 472.914 394.435C471.71 387.468 476.368 380.855 483.336 379.632C490.304 378.427 496.916 383.086 498.14 390.053C499.364 397.021 494.686 403.633 487.738 404.857H487.718Z" fill="white"/>
<path d="M483.196 432.748C476.248 431.504 471.609 424.852 472.853 417.885C474.096 410.917 480.748 406.298 487.716 407.542C494.664 408.785 499.302 415.437 498.059 422.385C496.815 429.353 490.164 433.971 483.216 432.728L483.196 432.748Z" fill="white"/>
<path d="M469.378 457.401C463.279 453.848 461.207 446.012 464.759 439.893C468.332 433.794 476.149 431.721 482.267 435.274C488.367 438.827 490.439 446.663 486.886 452.762C483.333 458.881 475.497 460.934 469.398 457.401H469.378Z" fill="white"/>
<path d="M447.96 475.817C443.44 470.389 444.19 462.316 449.618 457.796C455.066 453.276 463.119 454.006 467.639 459.454C472.159 464.882 471.429 472.955 465.981 477.475C460.553 481.995 452.48 481.265 447.96 475.837V475.817Z" fill="white"/>
<path d="M421.532 485.804C419.143 479.153 422.617 471.83 429.249 469.441C435.901 467.053 443.224 470.507 445.613 477.159C448.001 483.811 444.547 491.134 437.895 493.522C431.243 495.911 423.92 492.456 421.532 485.804Z" fill="white"/>
<path d="M393.287 486.12C393.327 479.054 399.09 473.35 406.156 473.389C413.223 473.428 418.927 479.192 418.888 486.258C418.848 493.325 413.085 499.029 406.038 498.99C398.972 498.95 393.267 493.206 393.307 486.14L393.287 486.12Z" fill="white"/>
<path d="M366.62 476.745C369.087 470.112 376.449 466.737 383.062 469.185C389.694 471.652 393.069 478.995 390.621 485.627C388.154 492.259 380.811 495.634 374.179 493.187C367.547 490.739 364.172 483.377 366.62 476.745Z" fill="white"/>
<path d="M344.809 458.802C349.388 453.433 357.461 452.762 362.849 457.342C368.238 461.921 368.889 469.994 364.31 475.382C359.731 480.771 351.658 481.422 346.289 476.843C340.9 472.264 340.249 464.191 344.809 458.802Z" fill="white"/>
<path d="M330.44 434.484C336.578 431.01 344.395 433.142 347.888 439.281C351.382 445.439 349.231 453.236 343.092 456.73C336.953 460.223 329.137 458.072 325.643 451.933C322.15 445.795 324.301 437.978 330.44 434.484Z" fill="white"/>
<path d="M325.286 406.693C332.254 405.528 338.866 410.226 340.03 417.194C341.195 424.161 336.517 430.774 329.549 431.938C322.582 433.103 315.989 428.425 314.805 421.457C313.62 414.49 318.318 407.877 325.286 406.713V406.693Z" fill="white"/>
<path d="M329.944 378.822C336.892 380.105 341.491 386.797 340.208 393.725C338.925 400.673 332.254 405.272 325.306 403.989C318.358 402.706 313.759 396.034 315.042 389.086C316.325 382.138 322.996 377.539 329.944 378.822Z" fill="white"/>
<path d="M343.882 354.248C349.961 357.84 351.994 365.676 348.422 371.776C344.829 377.855 336.993 379.908 330.894 376.315C324.795 372.723 322.781 364.887 326.354 358.807C329.947 352.708 337.783 350.675 343.882 354.268V354.248Z" fill="white"/>
<path d="M365.397 335.931C369.877 341.378 369.108 349.451 363.66 353.952C358.192 358.432 350.139 357.663 345.658 352.215C341.158 346.767 341.948 338.714 347.395 334.213C352.843 329.713 360.916 330.503 365.417 335.95L365.397 335.931Z" fill="white"/>
<path d="M391.885 326.101C394.233 332.753 390.74 340.076 384.068 342.424C377.397 344.773 370.093 341.28 367.745 334.608C365.396 327.937 368.87 320.653 375.541 318.304C382.213 315.936 389.516 319.449 391.885 326.101Z" fill="white"/>
<path d="M368.989 266.728C368.989 266.728 358.527 305.099 360.126 310.034L364.311 309.303C364.311 309.303 386.951 299.454 398.379 300.322L399.485 299.592C399.485 299.592 390.267 286.545 384.345 280.643C378.424 274.741 368.969 266.747 368.969 266.747L368.989 266.728Z" fill="#BE1E2D"/>
<path d="M321.004 291.835C321.004 291.835 325.919 331.687 328.011 335.635C328.011 335.635 334.031 327.877 337.86 325.173C341.67 322.469 355.566 312.758 359.632 311.396C363.698 310.034 359.75 311.021 359.75 311.021L356.059 307.211C356.059 307.211 325.8 290.848 321.004 291.835Z" fill="#BE1E2D"/>
<path d="M327.166 334.391C327.166 334.391 293.946 330.463 283.623 334.016C283.623 334.016 296.907 368.341 305.888 373.019C305.888 373.019 325.942 334.391 327.166 334.391Z" fill="#BE1E2D"/>
<path d="M306.278 372.032C306.278 372.032 275.604 379.493 266.584 386.639C266.584 386.639 290.191 408.035 299.705 411.075L300.771 411.312C300.771 411.312 300.199 398.442 302.33 390.31C304.462 382.197 306.258 372.012 306.258 372.012L306.278 372.032Z" fill="#BE1E2D"/>
<path d="M301.442 413.937C301.442 413.937 292.5 419.602 285.039 426.984C277.578 434.366 274.124 438.709 274.124 438.709C274.124 438.709 278.151 441.985 282.414 443.13C286.678 444.275 308.666 449.446 308.666 449.446C308.666 449.446 299.725 418.457 301.442 413.937Z" fill="#BE1E2D"/>
<path d="M310.467 452.644C310.467 452.644 304.388 465.928 300.223 475.027C296.058 484.127 295.052 489.042 295.052 489.042C295.052 489.042 298.091 489.456 300.954 489.535C303.816 489.614 329.081 486.416 329.081 486.416L335.634 484.521C335.634 484.521 325.469 473.863 321.521 468.869C317.593 463.855 310.448 452.624 310.448 452.624L310.467 452.644Z" fill="#BE1E2D"/>
<path d="M337.528 486.693C337.528 486.693 336.304 496.7 335.317 506.372C334.33 516.044 335.653 527.275 335.653 527.275L340.488 525.972C340.488 525.972 357.957 517.189 363.286 513.103C368.616 508.997 371.497 505.306 371.497 505.306C371.497 505.306 357.049 501.694 354.68 499.641C352.312 497.588 337.547 486.673 337.547 486.673L337.528 486.693Z" fill="#BE1E2D"/>
<path d="M376.233 507.675C376.233 507.675 379.51 521.689 381.484 527.61C383.458 533.512 388.787 544.507 388.787 544.507C388.787 544.507 395.261 537.46 397.729 534.578C400.196 531.716 410.697 515.708 412.335 513.576C413.973 511.445 412.75 510.458 412.75 510.458C412.75 510.458 398.636 511.03 393.07 510.122C387.504 509.214 376.253 507.655 376.253 507.655L376.233 507.675Z" fill="#BE1E2D"/>
<path d="M416.103 510.872C416.103 510.872 429.229 527.769 434.558 533.355C439.888 538.921 443.658 540.48 443.658 540.48L448.652 524.65C448.652 524.65 452.915 505.701 453.073 502.839C453.231 499.977 452.165 499.977 452.165 499.977C452.165 499.977 440.835 505.069 437.559 506.056C434.282 507.043 417.129 510.892 416.063 510.892L416.103 510.872Z" fill="#BE1E2D"/>
<path d="M454.635 499.72C454.635 499.72 473.248 509.806 477.097 511.622C480.946 513.418 493.263 517.287 493.263 517.287C493.263 517.287 490.144 492.022 489.572 490.719C488.999 489.397 485.802 476.705 485.802 476.705L477.926 480.968C477.926 480.968 475.637 483.752 472.834 485.962C470.031 488.173 458.326 496.779 457.99 497.272C457.655 497.766 454.635 499.74 454.635 499.74V499.72Z" fill="#BE1E2D"/>
<path d="M487.361 473.981C487.361 473.981 489.335 475.619 498.02 475.698C506.705 475.777 523.364 475.126 524.272 474.869C525.18 474.632 528.299 472.896 528.299 472.896C528.299 472.896 520.265 456.177 519.851 455.762C519.436 455.348 508.935 440.584 508.935 440.584L506.073 439.439C506.073 439.439 502.382 448.045 499.994 452.407C497.605 456.749 488.19 471.593 488.19 471.593L487.203 473.724L487.361 473.961V473.981Z" fill="#BE1E2D"/>
<path d="M507.04 438.788L511.541 439.617C511.541 439.617 542.866 428.464 547.622 425.681L544.839 420.845C544.839 420.845 519.1 401.581 516.712 400.91C514.324 400.258 510.889 400.574 510.889 400.574C510.889 400.574 511.541 412.378 510.554 415.99C509.567 419.602 507.021 438.788 507.021 438.788H507.04Z" fill="#BE1E2D"/>
<path d="M512.705 399.35L517.955 396.883C517.955 396.883 538.285 378.842 541.009 374.993C543.714 371.144 545.036 368.598 545.036 368.598C545.036 368.598 535.779 365.558 531.417 364.67C527.074 363.762 515.507 360.979 511.895 360.979C508.283 360.979 503.605 360.742 503.131 360.979C502.638 361.215 503.625 368.104 503.625 368.104C503.625 368.104 507.967 377.954 508.875 381.803C509.783 385.652 511.264 396.804 511.264 397.06C511.264 397.317 511.264 399.686 512.744 399.35H512.705Z" fill="#BE1E2D"/>
<path d="M502.044 359.005C502.044 359.005 508.518 348.504 509.426 346.056C510.334 343.589 519.098 322.429 519.098 322.429C519.098 322.429 506.051 322.015 497.939 323.732C489.826 325.449 479.325 328.233 479.325 328.233L480.233 331.095C480.233 331.095 488.03 339.286 489.984 342.484C491.958 345.681 497.603 354.702 497.603 354.702L500.88 358.886L502.024 358.965L502.044 359.005Z" fill="#BE1E2D"/>
<path d="M477.69 326.93C477.69 326.93 478.598 309.876 479.98 299.375C481.381 288.874 479.98 281.255 479.98 281.255C479.98 281.255 463.814 288.894 462.018 290.433C460.222 291.993 440.937 303.796 440.444 305.119C439.95 306.441 444.135 308.317 444.135 308.317C444.135 308.317 452.583 311.198 458.149 314.554C463.735 317.909 471.512 322.587 471.848 322.745C472.183 322.903 476.348 326.93 476.348 326.93H477.671H477.69Z" fill="#BE1E2D"/>
<path d="M435.525 105.82C435.525 105.82 438.485 69.4026 436.176 57.599C433.886 45.7954 422.734 33.9919 412.549 35.6301C412.549 35.6301 412.549 45.1441 420.425 51.6973C420.425 51.6973 413.872 58.5859 414.523 63.8363L402.384 62.8494L404.022 58.9215C404.022 58.9215 405.325 56.2963 402.048 53.0197C398.772 49.7431 396.798 48.4206 396.798 48.4206C396.798 48.4206 409.588 43.8216 410.575 34.6432C410.575 34.6432 392.534 31.3666 385.646 40.545C378.757 49.7234 373.506 59.8886 374.829 79.252C376.132 98.6155 376.132 103.846 376.132 103.846" fill="white"/>
<path d="M435.525 105.82C435.525 105.82 438.485 69.4026 436.176 57.599C433.886 45.7954 422.734 33.9919 412.549 35.6301C412.549 35.6301 412.549 45.1441 420.425 51.6973C420.425 51.6973 413.872 58.5859 414.523 63.8363L402.384 62.8494L404.022 58.9215C404.022 58.9215 405.325 56.2963 402.048 53.0197C398.772 49.7431 396.798 48.4206 396.798 48.4206C396.798 48.4206 409.588 43.8216 410.575 34.6432C410.575 34.6432 392.534 31.3666 385.646 40.545C378.757 49.7234 373.506 59.8886 374.829 79.252C376.132 98.6155 376.132 103.846 376.132 103.846" stroke="#231F20" stroke-width="1.14483"/>
<path d="M409.364 99.739C421.407 98.2603 429.97 87.2991 428.492 75.2565C427.013 63.2139 416.052 54.65 404.009 56.1287C391.967 57.6073 383.403 68.5685 384.881 80.6112C386.36 92.6538 397.321 101.218 409.364 99.739Z" fill="white" stroke="#231F20" stroke-width="1.14483"/>
<path d="M497.367 118.551C497.367 118.551 507.829 83.5549 508.046 71.5145C508.263 59.4938 499.815 45.6176 489.511 45.1044C489.511 45.1044 487.538 54.4013 493.874 62.4546C493.874 62.4546 486.018 67.8234 485.564 73.0935L473.898 69.5999L476.326 66.0864C476.326 66.0864 478.162 63.7967 475.635 59.9083C473.109 56.0198 471.451 54.3224 471.451 54.3224C471.451 54.3224 484.912 52.4866 487.794 43.7227C487.794 43.7227 470.839 36.7551 462.174 44.315C453.528 51.855 446.264 60.7176 443.521 79.9231C440.777 99.1286 439.672 104.261 439.672 104.261" fill="white"/>
<path d="M497.367 118.551C497.367 118.551 507.829 83.5549 508.046 71.5145C508.263 59.4938 499.815 45.6176 489.511 45.1044C489.511 45.1044 487.538 54.4013 493.874 62.4546C493.874 62.4546 486.018 67.8234 485.564 73.0935L473.898 69.5999L476.326 66.0864C476.326 66.0864 478.162 63.7967 475.635 59.9083C473.109 56.0198 471.451 54.3224 471.451 54.3224C471.451 54.3224 484.912 52.4866 487.794 43.7227C487.794 43.7227 470.839 36.7551 462.174 44.315C453.528 51.855 446.264 60.7176 443.521 79.9231C440.777 99.1286 439.672 104.261 439.672 104.261" stroke="#231F20" stroke-width="1.14483"/>
<path d="M496.438 89.8516C493.911 101.714 482.246 109.294 470.364 106.767C458.501 104.241 450.921 92.5755 453.448 80.6929C455.974 68.8301 467.64 61.2506 479.522 63.7771C491.405 66.3036 498.964 77.9691 496.438 89.8516Z" fill="white" stroke="#231F20" stroke-width="1.14483"/>
<path d="M555.201 143.856C555.201 143.856 572.729 111.801 575.433 100.076C578.137 88.3514 572.769 73.0343 562.801 70.3893C562.801 70.3893 558.932 79.0743 563.452 88.2724C563.452 88.2724 554.649 91.8845 553.109 96.9573L542.431 91.1147L545.53 88.1935C545.53 88.1935 547.799 86.338 546.141 81.9956C544.483 77.6728 543.22 75.6596 543.22 75.6596C543.22 75.6596 556.78 76.6859 561.419 68.6919C561.419 68.6919 546.28 58.349 536.252 63.935C526.225 69.5209 517.284 76.6662 510.612 94.8848C503.921 113.103 501.789 117.88 501.789 117.88" fill="white"/>
<path d="M555.201 143.856C555.201 143.856 572.729 111.801 575.433 100.076C578.137 88.3514 572.769 73.0343 562.801 70.3893C562.801 70.3893 558.932 79.0743 563.452 88.2724C563.452 88.2724 554.649 91.8845 553.109 96.9573L542.431 91.1147L545.53 88.1935C545.53 88.1935 547.799 86.338 546.141 81.9956C544.483 77.6728 543.22 75.6596 543.22 75.6596C543.22 75.6596 556.78 76.6859 561.419 68.6919C561.419 68.6919 546.28 58.349 536.252 63.935C526.225 69.5209 517.284 76.6662 510.612 94.8848C503.921 113.103 501.789 117.88 501.789 117.88" stroke="#231F20" stroke-width="1.14483"/>
<path d="M560.255 115.59C555.321 126.664 542.313 131.658 531.24 126.723C520.147 121.788 515.173 108.781 520.107 97.7074C525.042 86.6341 538.05 81.6403 549.123 86.5749C560.196 91.5095 565.19 104.517 560.236 115.59H560.255Z" fill="white" stroke="#231F20" stroke-width="1.14483"/>
<path d="M606.501 180.668C606.501 180.668 630.305 152.955 635.398 142.06C640.49 131.164 638.418 115.058 629.22 110.399C629.22 110.399 623.634 118.097 626.141 128.026C626.141 128.026 616.785 129.743 614.219 134.362L604.981 126.427L608.613 124.196C608.613 124.196 611.218 122.854 610.488 118.255C609.758 113.676 608.948 111.446 608.948 111.446C608.948 111.446 621.996 115.255 628.193 108.406C628.193 108.406 615.541 95.1415 604.567 98.5168C593.592 101.892 583.368 107.024 573.044 123.446C562.721 139.869 559.622 144.113 559.622 144.113" fill="white"/>
<path d="M606.501 180.668C606.501 180.668 630.305 152.955 635.398 142.06C640.49 131.164 638.418 115.058 629.22 110.399C629.22 110.399 623.634 118.097 626.141 128.026C626.141 128.026 616.785 129.743 614.219 134.362L604.981 126.427L608.613 124.196C608.613 124.196 611.218 122.854 610.488 118.255C609.758 113.676 608.948 111.446 608.948 111.446C608.948 111.446 621.996 115.255 628.193 108.406C628.193 108.406 615.541 95.1415 604.567 98.5168C593.592 101.892 583.368 107.024 573.044 123.446C562.721 139.869 559.622 144.113 559.622 144.113" stroke="#231F20" stroke-width="1.14483"/>
<path d="M617.337 154.061C610.192 163.871 596.454 166.042 586.624 158.897C576.814 151.751 574.643 138.013 581.788 128.184C588.933 118.374 602.671 116.202 612.501 123.348C622.311 130.493 624.482 144.231 617.337 154.061Z" fill="white" stroke="#231F20" stroke-width="1.14483"/>
<path d="M649.017 227.33C649.017 227.33 678.072 205.183 685.316 195.59C692.56 185.997 693.882 169.812 685.868 163.338C685.868 163.338 678.802 169.693 679.177 179.938C679.177 179.938 669.663 179.661 666.189 183.668L658.807 173.996L662.834 172.575C662.834 172.575 665.656 171.786 665.913 167.167C666.15 162.528 665.814 160.199 665.814 160.199C665.814 160.199 677.776 166.654 685.276 161.245C685.276 161.245 675.664 145.632 664.215 146.639C652.787 147.646 641.713 150.547 628.193 164.463C614.672 178.378 610.764 181.872 610.764 181.872" fill="white"/>
<path d="M649.017 227.33C649.017 227.33 678.072 205.183 685.316 195.59C692.56 185.997 693.882 169.812 685.868 163.338C685.868 163.338 678.802 169.693 679.177 179.938C679.177 179.938 669.663 179.661 666.189 183.668L658.807 173.996L662.834 172.575C662.834 172.575 665.656 171.786 665.913 167.167C666.15 162.528 665.814 160.199 665.814 160.199C665.814 160.199 677.776 166.654 685.276 161.245C685.276 161.245 675.664 145.632 664.215 146.639C652.787 147.646 641.713 150.547 628.193 164.463C614.672 178.378 610.764 181.872 610.764 181.872" stroke="#231F20" stroke-width="1.14483"/>
<path d="M665.145 203.565C656.124 211.677 642.228 210.927 634.116 201.907C626.003 192.886 626.734 178.99 635.774 170.878C644.794 162.765 658.71 163.515 666.803 172.536C674.915 181.556 674.185 195.472 665.145 203.584V203.565Z" fill="white" stroke="#231F20" stroke-width="1.14483"/>
<path d="M680.878 281.828C680.878 281.828 713.9 266.215 722.999 258.339C732.079 250.463 736.757 234.909 730.263 226.915C730.263 226.915 722.032 231.652 720.276 241.759C720.276 241.759 711.018 239.508 706.814 242.686L701.623 231.692L705.847 231.139C705.847 231.139 708.768 230.962 709.972 226.481C711.176 222 711.334 219.652 711.334 219.652C711.334 219.652 721.697 228.455 730.145 224.724C730.145 224.724 723.986 207.453 712.597 206.071C701.208 204.69 689.78 205.203 673.653 216C657.527 226.777 652.987 229.402 652.987 229.402" fill="white"/>
<path d="M680.878 281.828C680.878 281.828 713.9 266.215 722.999 258.339C732.079 250.463 736.757 234.909 730.263 226.915C730.263 226.915 722.032 231.652 720.276 241.759C720.276 241.759 711.018 239.508 706.814 242.686L701.623 231.692L705.847 231.139C705.847 231.139 708.768 230.962 709.972 226.481C711.176 222 711.334 219.652 711.334 219.652C711.334 219.652 721.697 228.455 730.145 224.724C730.145 224.724 723.986 207.453 712.597 206.071C701.208 204.69 689.78 205.203 673.653 216C657.527 226.777 652.987 229.402 652.987 229.402" stroke="#231F20" stroke-width="1.14483"/>
<path d="M701.603 261.951C691.083 268.011 677.641 264.379 671.601 253.878C665.541 243.357 669.153 229.915 679.674 223.876C690.194 217.816 703.636 221.448 709.676 231.949C715.736 242.469 712.124 255.911 701.603 261.971V261.951Z" fill="white" stroke="#231F20" stroke-width="1.14483"/>
<path d="M700.692 341.753C700.692 341.753 736.241 333.365 746.782 327.542C757.302 321.739 765.099 307.488 760.421 298.309C760.421 298.309 751.381 301.23 747.551 310.744C747.551 310.744 738.965 306.619 734.189 308.849L731.386 297.006L735.649 297.362C735.649 297.362 738.551 297.796 740.663 293.671C742.775 289.545 743.406 287.275 743.406 287.275C743.406 287.275 751.716 298.033 760.756 296.138C760.756 296.138 758.329 277.959 747.473 274.228C736.616 270.498 725.326 268.642 707.325 275.847C689.303 283.051 684.31 284.67 684.31 284.67" fill="white"/>
<path d="M700.692 341.753C700.692 341.753 736.241 333.365 746.782 327.542C757.302 321.739 765.099 307.488 760.421 298.309C760.421 298.309 751.381 301.23 747.551 310.744C747.551 310.744 738.965 306.619 734.189 308.849L731.386 297.006L735.649 297.362C735.649 297.362 738.551 297.796 740.663 293.671C742.775 289.545 743.406 287.275 743.406 287.275C743.406 287.275 751.716 298.033 760.756 296.138C760.756 296.138 758.329 277.959 747.473 274.228C736.616 270.498 725.326 268.642 707.325 275.847C689.303 283.051 684.31 284.67 684.31 284.67" stroke="#231F20" stroke-width="1.14483"/>
<path d="M725.109 326.634C713.562 330.364 701.166 324.028 697.435 312.481C693.705 300.934 700.041 288.539 711.588 284.808C723.135 281.078 735.53 287.414 739.261 298.961C742.992 310.508 736.656 322.903 725.109 326.634Z" fill="white" stroke="#231F20" stroke-width="1.14483"/>
<path d="M707.62 404.502C707.62 404.502 744.136 403.693 755.663 400.199C767.171 396.705 777.77 384.389 775.086 374.44C775.086 374.44 765.631 375.408 759.907 383.915C759.907 383.915 752.367 378.092 747.215 379.276L746.939 367.117L751.025 368.341C751.025 368.341 753.768 369.368 756.69 365.775C759.611 362.183 760.716 360.09 760.716 360.09C760.716 360.09 766.598 372.348 775.836 372.368C775.836 372.368 777.237 354.09 767.408 348.168C757.558 342.267 746.899 338.082 727.793 341.378C708.666 344.675 703.455 345.208 703.455 345.208" fill="white"/>
<path d="M707.62 404.502C707.62 404.502 744.136 403.693 755.663 400.199C767.171 396.705 777.77 384.389 775.086 374.44C775.086 374.44 765.631 375.408 759.907 383.915C759.907 383.915 752.367 378.092 747.215 379.276L746.939 367.117L751.025 368.341C751.025 368.341 753.768 369.368 756.69 365.775C759.611 362.183 760.716 360.09 760.716 360.09C760.716 360.09 766.598 372.348 775.836 372.368C775.836 372.368 777.237 354.09 767.408 348.168C757.558 342.267 746.899 338.082 727.793 341.378C708.666 344.675 703.455 345.208 703.455 345.208" stroke="#231F20" stroke-width="1.14483"/>
<path d="M734.643 394.791C722.563 396.034 711.766 387.27 710.523 375.19C709.279 363.11 718.043 352.313 730.123 351.07C742.203 349.826 753 358.61 754.244 370.67C755.487 382.75 746.723 393.547 734.643 394.791Z" fill="white" stroke="#231F20" stroke-width="1.14483"/>
<path d="M701.307 467.329C701.307 467.329 737.191 474.139 749.192 473.133C761.173 472.106 774.102 462.276 773.549 451.993C773.549 451.993 764.095 450.986 756.732 458.111C756.732 458.111 750.574 450.848 745.284 450.947L747.554 438.985L751.304 441.038C751.304 441.038 753.771 442.617 757.383 439.715C760.996 436.794 762.496 434.978 762.496 434.978C762.496 434.978 765.693 448.183 774.734 450.137C774.734 450.137 779.925 432.55 771.516 424.714C763.127 416.878 753.554 410.581 734.191 409.831C714.808 409.062 709.597 408.509 709.597 408.509" fill="white"/>
<path d="M701.307 467.329C701.307 467.329 737.191 474.139 749.192 473.133C761.173 472.106 774.102 462.276 773.549 451.993C773.549 451.993 764.095 450.986 756.732 458.111C756.732 458.111 750.574 450.848 745.284 450.947L747.554 438.985L751.304 441.038C751.304 441.038 753.771 442.617 757.383 439.715C760.996 436.794 762.496 434.978 762.496 434.978C762.496 434.978 765.693 448.183 774.734 450.137C774.734 450.137 779.925 432.55 771.516 424.714C763.127 416.878 753.554 410.581 734.191 409.831C714.808 409.062 709.597 408.509 709.597 408.509" stroke="#231F20" stroke-width="1.14483"/>
<path d="M729.77 463.441C717.69 462.158 708.965 451.321 710.248 439.241C711.531 427.181 722.368 418.437 734.448 419.72C746.508 421.023 755.252 431.859 753.949 443.919C752.666 455.999 741.83 464.724 729.75 463.441H729.77Z" fill="white" stroke="#231F20" stroke-width="1.14483"/>
<path d="M682.084 527.453C682.084 527.453 715.777 541.585 727.699 543.086C739.641 544.586 754.327 537.657 755.925 527.472C755.925 527.472 746.885 524.512 738.22 529.959C738.22 529.959 733.72 521.571 728.528 520.564L733.226 509.333L736.463 512.116C736.463 512.116 738.536 514.169 742.681 512.076C746.826 509.984 748.681 508.524 748.681 508.524C748.681 508.524 749.056 522.104 757.485 525.893C757.485 525.893 766.209 509.767 759.636 500.372C753.044 490.976 745.01 482.824 726.219 478.047C707.428 473.271 702.434 471.632 702.434 471.632" fill="white"/>
<path d="M682.084 527.453C682.084 527.453 715.777 541.585 727.699 543.086C739.641 544.586 754.327 537.657 755.925 527.472C755.925 527.472 746.885 524.512 738.22 529.959C738.22 529.959 733.72 521.571 728.528 520.564L733.226 509.333L736.463 512.116C736.463 512.116 738.536 514.169 742.681 512.076C746.826 509.984 748.681 508.524 748.681 508.524C748.681 508.524 749.056 522.104 757.485 525.893C757.485 525.893 766.209 509.767 759.636 500.372C753.044 490.976 745.01 482.824 726.219 478.047C707.428 473.271 702.434 471.632 702.434 471.632" stroke="#231F20" stroke-width="1.14483"/>
<path d="M710.724 529.584C699.177 525.814 692.9 513.399 696.67 501.852C700.44 490.325 712.856 484.028 724.403 487.798C735.93 491.568 742.226 504.003 738.437 515.531C734.667 527.058 722.251 533.355 710.724 529.584Z" fill="white" stroke="#231F20" stroke-width="1.14483"/>
<path d="M650.736 582.266C650.736 582.266 680.739 603.11 692.108 607.058C703.477 611.005 719.288 607.275 722.979 597.662C722.979 597.662 714.748 592.885 705.135 596.419C705.135 596.419 702.471 587.28 697.595 585.207L704.543 575.219L707.129 578.615C707.129 578.615 708.728 581.062 713.208 579.878C717.689 578.693 719.821 577.647 719.821 577.647C719.821 577.647 717.373 591.01 724.815 596.478C724.815 596.478 736.717 582.523 732.236 571.963C727.756 561.403 721.597 551.751 704.188 543.164C686.798 534.578 682.259 531.953 682.259 531.953" fill="white"/>
<path d="M650.736 582.266C650.736 582.266 680.739 603.11 692.108 607.058C703.477 611.005 719.288 607.275 722.979 597.662C722.979 597.662 714.748 592.885 705.135 596.419C705.135 596.419 702.471 587.28 697.595 585.207L704.543 575.219L707.129 578.615C707.129 578.615 708.728 581.062 713.208 579.878C717.689 578.693 719.821 577.647 719.821 577.647C719.821 577.647 717.373 591.01 724.815 596.478C724.815 596.478 736.717 582.523 732.236 571.963C727.756 561.403 721.597 551.751 704.188 543.164C686.798 534.578 682.259 531.953 682.259 531.953" stroke="#231F20" stroke-width="1.14483"/>
<path d="M678.311 590.3C667.81 584.2 664.237 570.759 670.336 560.258C676.416 549.777 689.877 546.184 700.378 552.283C710.859 558.383 714.432 571.844 708.353 582.325C702.253 592.826 688.812 596.399 678.311 590.3Z" fill="white" stroke="#231F20" stroke-width="1.14483"/>
<path d="M608.689 629.342C608.689 629.342 633.698 655.969 644.001 662.187C654.285 668.405 670.53 668.069 676.136 659.424C676.136 659.424 669.089 653.048 658.943 654.489C658.943 654.489 658.233 644.995 653.91 641.955L662.773 633.626L664.589 637.494C664.589 637.494 665.654 640.218 670.273 640.001C674.912 639.764 677.201 639.192 677.201 639.192C677.201 639.192 672.01 651.745 678.169 658.654C678.169 658.654 692.716 647.482 690.525 636.211C688.334 624.941 684.327 614.223 669.089 602.222C653.871 590.201 649.962 586.688 649.962 586.688" fill="white"/>
<path d="M608.689 629.342C608.689 629.342 633.698 655.969 644.001 662.187C654.285 668.405 670.53 668.069 676.136 659.424C676.136 659.424 669.089 653.048 658.943 654.489C658.943 654.489 658.233 644.995 653.91 641.955L662.773 633.626L664.589 637.494C664.589 637.494 665.654 640.218 670.273 640.001C674.912 639.764 677.201 639.192 677.201 639.192C677.201 639.192 672.01 651.745 678.169 658.654C678.169 658.654 692.716 647.482 690.525 636.211C688.334 624.941 684.327 614.223 669.089 602.222C653.871 590.201 649.962 586.688 649.962 586.688" stroke="#231F20" stroke-width="1.14483"/>
<path d="M633.975 642.942C624.975 634.79 624.284 620.894 632.436 611.893C640.568 602.893 654.484 602.202 663.484 610.354C672.485 618.506 673.176 632.402 665.024 641.402C656.872 650.403 642.976 651.094 633.995 642.942H633.975Z" fill="white" stroke="#231F20" stroke-width="1.14483"/>
<path d="M557.745 666.648C557.745 666.648 576.674 697.894 585.438 706.125C594.202 714.356 610.17 717.396 617.454 710.112C617.454 710.112 611.888 702.414 601.663 701.704C601.663 701.704 602.946 692.269 599.354 688.4L609.756 682.103L610.743 686.268C610.743 686.268 611.216 689.15 615.796 689.9C620.375 690.63 622.744 690.551 622.744 690.551C622.744 690.551 615.066 701.763 619.645 709.777C619.645 709.777 636.186 701.881 636.403 690.393C636.62 678.906 634.903 667.596 622.527 652.673C610.131 637.751 607.071 633.488 607.071 633.488" fill="white"/>
<path d="M557.745 666.648C557.745 666.648 576.674 697.894 585.438 706.125C594.202 714.356 610.17 717.396 617.454 710.112C617.454 710.112 611.888 702.414 601.663 701.704C601.663 701.704 602.946 692.269 599.354 688.4L609.756 682.103L610.743 686.268C610.743 686.268 611.216 689.15 615.796 689.9C620.375 690.63 622.744 690.551 622.744 690.551C622.744 690.551 615.066 701.763 619.645 709.777C619.645 709.777 636.186 701.881 636.403 690.393C636.62 678.906 634.903 667.596 622.527 652.673C610.131 637.751 607.071 633.488 607.071 633.488" stroke="#231F20" stroke-width="1.14483"/>
<path d="M579.655 685.222C572.549 675.372 574.76 661.634 584.61 654.548C594.439 647.442 608.197 649.653 615.303 659.503C622.409 669.352 620.178 683.09 610.348 690.196C600.519 697.302 586.781 695.091 579.675 685.242L579.655 685.222Z" fill="white" stroke="#231F20" stroke-width="1.14483"/>
<path d="M500.172 692.525C500.172 692.525 512.173 727.028 519.042 736.917C525.911 746.786 540.873 753.083 549.518 747.477C549.518 747.477 545.669 738.772 535.819 735.969C535.819 735.969 539.057 727.008 536.333 722.468L547.82 718.461L547.919 722.725C547.919 722.725 547.761 725.646 552.104 727.324C556.426 729.002 558.756 729.397 558.756 729.397C558.756 729.397 548.906 738.753 551.709 747.556C551.709 747.556 569.533 743.273 572.138 732.101C574.724 720.909 575.435 709.5 566.414 692.328C557.413 675.155 555.282 670.339 555.282 670.339" fill="white"/>
<path d="M500.172 692.525C500.172 692.525 512.173 727.028 519.042 736.917C525.911 746.786 540.873 753.083 549.518 747.477C549.518 747.477 545.669 738.772 535.819 735.969C535.819 735.969 539.057 727.008 536.333 722.468L547.82 718.461L547.919 722.725C547.919 722.725 547.761 725.646 552.104 727.324C556.426 729.002 558.756 729.397 558.756 729.397C558.756 729.397 548.906 738.753 551.709 747.556C551.709 747.556 569.533 743.273 572.138 732.101C574.724 720.909 575.435 709.5 566.414 692.328C557.413 675.155 555.282 670.339 555.282 670.339" stroke="#231F20" stroke-width="1.14483"/>
<path d="M517.74 715.244C512.825 704.131 517.858 691.163 528.971 686.268C540.064 681.373 553.052 686.386 557.947 697.499C562.842 708.612 557.809 721.58 546.716 726.475C535.623 731.37 522.635 726.357 517.74 715.244Z" fill="white" stroke="#231F20" stroke-width="1.14483"/>
<path d="M438.467 705.849C438.467 705.849 443.026 742.088 447.685 753.181C452.343 764.255 465.686 773.532 475.299 769.86C475.299 769.86 473.345 760.544 464.304 755.747C464.304 755.747 469.338 747.655 467.621 742.661L479.7 741.141L478.911 745.345C478.911 745.345 478.161 748.168 482.049 750.714C485.938 753.26 488.129 754.129 488.129 754.129C488.129 754.129 476.542 761.235 477.47 770.433C477.47 770.433 495.807 769.959 500.663 759.557C505.538 749.155 508.578 738.121 503.347 719.448C498.116 700.776 497.031 695.624 497.031 695.624" fill="white"/>
<path d="M438.467 705.849C438.467 705.849 443.026 742.088 447.685 753.181C452.343 764.255 465.686 773.532 475.299 769.86C475.299 769.86 473.345 760.544 464.304 755.747C464.304 755.747 469.338 747.655 467.621 742.661L479.7 741.141L478.911 745.345C478.911 745.345 478.161 748.168 482.049 750.714C485.938 753.26 488.129 754.129 488.129 754.129C488.129 754.129 476.542 761.235 477.47 770.433C477.47 770.433 495.807 769.959 500.663 759.557C505.538 749.155 508.578 738.121 503.347 719.448C498.116 700.776 497.031 695.624 497.031 695.624" stroke="#231F20" stroke-width="1.14483"/>
<path d="M450.899 731.726C448.412 719.843 456.031 708.197 467.914 705.71C479.777 703.223 491.442 710.842 493.929 722.725C496.396 734.607 488.777 746.253 476.915 748.74C465.032 751.227 453.386 743.608 450.919 731.726H450.899Z" fill="white" stroke="#231F20" stroke-width="1.14483"/>
<path d="M375.323 706.026C375.323 706.026 372.224 742.424 374.474 754.247C376.725 766.051 387.837 777.914 398.022 776.315C398.022 776.315 398.062 766.801 390.206 760.228C390.206 760.228 396.799 753.359 396.167 748.109L408.286 749.135L406.628 753.083C406.628 753.083 405.306 755.688 408.583 758.985C411.859 762.281 413.813 763.603 413.813 763.603C413.813 763.603 401.003 768.143 399.977 777.322C399.977 777.322 417.998 780.677 424.926 771.519C431.854 762.36 437.124 752.214 435.9 732.851C434.657 713.487 434.677 708.237 434.677 708.237" fill="white"/>
<path d="M375.323 706.026C375.323 706.026 372.224 742.424 374.474 754.247C376.725 766.051 387.837 777.914 398.022 776.315C398.022 776.315 398.062 766.801 390.206 760.228C390.206 760.228 396.799 753.359 396.167 748.109L408.286 749.135L406.628 753.083C406.628 753.083 405.306 755.688 408.583 758.985C411.859 762.281 413.813 763.603 413.813 763.603C413.813 763.603 401.003 768.143 399.977 777.322C399.977 777.322 417.998 780.677 424.926 771.519C431.854 762.36 437.124 752.214 435.9 732.851C434.657 713.487 434.677 708.237 434.677 708.237" stroke="#231F20" stroke-width="1.14483"/>
<path d="M382.115 733.937C382.154 721.797 392.023 712.007 404.182 712.047C416.301 712.086 426.112 721.975 426.072 734.094C426.013 746.234 416.144 756.044 404.005 755.984C391.865 755.945 382.055 746.076 382.115 733.917V733.937Z" fill="white" stroke="#231F20" stroke-width="1.14483"/>
<path d="M313.546 693.078C313.546 693.078 302.947 728.035 302.69 740.075C302.434 752.096 310.842 765.992 321.126 766.544C321.126 766.544 323.139 757.247 316.823 749.174C316.823 749.174 324.699 743.825 325.172 738.555L336.818 742.088L334.39 745.602C334.39 745.602 332.555 747.872 335.061 751.78C337.568 755.688 339.226 757.366 339.226 757.366C339.226 757.366 325.745 759.142 322.843 767.906C322.843 767.906 339.779 774.933 348.464 767.433C357.149 759.912 364.412 751.089 367.235 731.903C370.058 712.718 371.163 707.586 371.163 707.586" fill="white"/>
<path d="M313.546 693.078C313.546 693.078 302.947 728.035 302.69 740.075C302.434 752.096 310.842 765.992 321.126 766.544C321.126 766.544 323.139 757.247 316.823 749.174C316.823 749.174 324.699 743.825 325.172 738.555L336.818 742.088L334.39 745.602C334.39 745.602 332.555 747.872 335.061 751.78C337.568 755.688 339.226 757.366 339.226 757.366C339.226 757.366 325.745 759.142 322.843 767.906C322.843 767.906 339.779 774.933 348.464 767.433C357.149 759.912 364.412 751.089 367.235 731.903C370.058 712.718 371.163 707.586 371.163 707.586" stroke="#231F20" stroke-width="1.14483"/>
<path d="M314.373 721.777C316.939 709.915 328.644 702.374 340.507 704.96C352.35 707.526 359.89 719.231 357.324 731.094C354.758 742.957 343.033 750.497 331.19 747.911C319.328 745.345 311.788 733.64 314.373 721.777Z" fill="white" stroke="#231F20" stroke-width="1.14483"/>
<path d="M255.807 667.536C255.807 667.536 238.161 699.532 235.398 711.237C232.654 722.942 237.964 738.299 247.912 740.963C247.912 740.963 251.82 732.298 247.32 723.08C247.32 723.08 256.143 719.488 257.702 714.435L268.361 720.317L265.242 723.238C265.242 723.238 262.972 725.074 264.611 729.436C266.249 733.779 267.512 735.772 267.512 735.772C267.512 735.772 253.972 734.706 249.294 742.681C249.294 742.681 264.393 753.083 274.46 747.556C284.507 742.009 293.468 734.884 300.219 716.705C306.969 698.526 309.121 693.729 309.121 693.729" fill="white"/>
<path d="M255.807 667.536C255.807 667.536 238.161 699.532 235.398 711.237C232.654 722.942 237.964 738.299 247.912 740.963C247.912 740.963 251.82 732.298 247.32 723.08C247.32 723.08 256.143 719.488 257.702 714.435L268.361 720.317L265.242 723.238C265.242 723.238 262.972 725.074 264.611 729.436C266.249 733.779 267.512 735.772 267.512 735.772C267.512 735.772 253.972 734.706 249.294 742.681C249.294 742.681 264.393 753.083 274.46 747.556C284.507 742.009 293.468 734.884 300.219 716.705C306.969 698.526 309.121 693.729 309.121 693.729" stroke="#231F20" stroke-width="1.14483"/>
<path d="M250.655 695.802C255.629 684.728 268.637 679.794 279.71 684.788C290.764 689.762 295.698 702.789 290.724 713.842C285.73 724.916 272.723 729.85 261.65 724.857C250.576 719.882 245.642 706.855 250.635 695.802H250.655Z" fill="white" stroke="#231F20" stroke-width="1.14483"/>
<path d="M204.646 630.547C204.646 630.547 180.723 658.161 175.591 669.037C170.459 679.912 172.472 696.039 181.65 700.717C181.65 700.717 187.276 693.058 184.809 683.11C184.809 683.11 194.184 681.432 196.75 676.833L205.948 684.788L202.297 686.998C202.297 686.998 199.691 688.321 200.382 692.92C201.093 697.519 201.902 699.73 201.902 699.73C201.902 699.73 188.875 695.861 182.657 702.691C182.657 702.691 195.27 716.014 206.245 712.678C217.239 709.342 227.483 704.25 237.865 687.867C248.248 671.484 251.367 667.26 251.367 667.26" fill="white"/>
<path d="M204.646 630.547C204.646 630.547 180.723 658.161 175.591 669.037C170.459 679.912 172.472 696.039 181.65 700.717C181.65 700.717 187.276 693.058 184.809 683.11C184.809 683.11 194.184 681.432 196.75 676.833L205.948 684.788L202.297 686.998C202.297 686.998 199.691 688.321 200.382 692.92C201.093 697.519 201.902 699.73 201.902 699.73C201.902 699.73 188.875 695.861 182.657 702.691C182.657 702.691 195.27 716.014 206.245 712.678C217.239 709.342 227.483 704.25 237.865 687.867C248.248 671.484 251.367 667.26 251.367 667.26" stroke="#231F20" stroke-width="1.14483"/>
<path d="M193.731 657.114C200.896 647.324 214.654 645.212 224.444 652.397C234.214 659.562 236.346 673.32 229.161 683.11C221.977 692.9 208.219 695.012 198.429 687.827C188.638 680.643 186.526 666.905 193.711 657.114H193.731Z" fill="white" stroke="#231F20" stroke-width="1.14483"/>
<path d="M162.326 583.707C162.326 583.707 133.192 605.735 125.889 615.308C118.606 624.881 117.224 641.067 125.218 647.561C125.218 647.561 132.304 641.225 131.969 630.981C131.969 630.981 141.483 631.296 144.957 627.329L152.299 637.04L148.273 638.442C148.273 638.442 145.45 639.192 145.174 643.83C144.917 648.469 145.233 650.798 145.233 650.798C145.233 650.798 133.291 644.304 125.79 649.693C125.79 649.693 135.344 665.345 146.792 664.378C158.241 663.411 169.314 660.549 182.874 646.692C196.454 632.836 200.362 629.342 200.362 629.342" fill="white"/>
<path d="M162.326 583.707C162.326 583.707 133.192 605.735 125.889 615.308C118.606 624.881 117.224 641.067 125.218 647.561C125.218 647.561 132.304 641.225 131.969 630.981C131.969 630.981 141.483 631.296 144.957 627.329L152.299 637.04L148.273 638.442C148.273 638.442 145.45 639.192 145.174 643.83C144.917 648.469 145.233 650.798 145.233 650.798C145.233 650.798 133.291 644.304 125.79 649.693C125.79 649.693 135.344 665.345 146.792 664.378C158.241 663.411 169.314 660.549 182.874 646.692C196.454 632.836 200.362 629.342 200.362 629.342" stroke="#231F20" stroke-width="1.14483"/>
<path d="M146.102 607.413C155.162 599.32 169.058 600.13 177.131 609.19C185.204 618.23 184.414 632.145 175.354 640.218C166.294 648.291 152.399 647.502 144.326 638.442C136.253 629.382 137.042 615.486 146.102 607.413Z" fill="white" stroke="#231F20" stroke-width="1.14483"/>
<path d="M130.67 529.091C130.67 529.091 97.5881 544.566 88.469 552.422C79.3498 560.278 74.6322 575.812 81.0867 583.826C81.0867 583.826 89.3374 579.108 91.1336 569.022C91.1336 569.022 100.371 571.312 104.615 568.153L109.767 579.167L105.523 579.7C105.523 579.7 102.602 579.858 101.378 584.339C100.154 588.82 99.9961 591.168 99.9961 591.168C99.9961 591.168 89.6729 582.326 81.2051 586.036C81.2051 586.036 87.3044 603.327 98.6934 604.768C110.083 606.189 121.511 605.716 137.677 594.978C153.843 584.24 158.402 581.655 158.402 581.655" fill="white"/>
<path d="M130.67 529.091C130.67 529.091 97.5881 544.566 88.469 552.422C79.3498 560.278 74.6322 575.812 81.0867 583.826C81.0867 583.826 89.3374 579.108 91.1336 569.022C91.1336 569.022 100.371 571.312 104.615 568.153L109.767 579.167L105.523 579.7C105.523 579.7 102.602 579.858 101.378 584.339C100.154 588.82 99.9961 591.168 99.9961 591.168C99.9961 591.168 89.6729 582.326 81.2051 586.036C81.2051 586.036 87.3044 603.327 98.6934 604.768C110.083 606.189 121.511 605.716 137.677 594.978C153.843 584.24 158.402 581.655 158.402 581.655" stroke="#231F20" stroke-width="1.14483"/>
<path d="M109.863 548.908C120.404 542.888 133.826 546.56 139.846 557.1C145.866 567.62 142.195 581.062 131.655 587.083C121.114 593.103 107.672 589.431 101.672 578.891C95.6518 568.351 99.3232 554.929 109.863 548.908Z" fill="white" stroke="#231F20" stroke-width="1.14483"/>
<path d="M111.068 469.086C111.068 469.086 75.4796 477.337 64.9393 483.12C54.399 488.903 46.5432 503.115 51.1817 512.293C51.1817 512.293 60.2416 509.412 64.0906 499.898C64.0906 499.898 72.6571 504.063 77.4535 501.852L80.1972 513.695L75.9336 513.34C75.9336 513.34 73.0519 512.886 70.9201 517.011C68.7884 521.136 68.1369 523.406 68.1369 523.406C68.1369 523.406 59.8666 512.609 50.8264 514.465C50.8264 514.465 53.195 532.644 64.0314 536.434C74.8876 540.204 86.1582 542.098 104.199 534.973C122.24 527.847 127.234 526.249 127.234 526.249" fill="white"/>
<path d="M111.068 469.086C111.068 469.086 75.4796 477.337 64.9393 483.12C54.399 488.903 46.5432 503.115 51.1817 512.293C51.1817 512.293 60.2416 509.412 64.0906 499.898C64.0906 499.898 72.6571 504.063 77.4535 501.852L80.1972 513.695L75.9336 513.34C75.9336 513.34 73.0519 512.886 70.9201 517.011C68.7884 521.136 68.1369 523.406 68.1369 523.406C68.1369 523.406 59.8666 512.609 50.8264 514.465C50.8264 514.465 53.195 532.644 64.0314 536.434C74.8876 540.204 86.1582 542.098 104.199 534.973C122.24 527.847 127.234 526.249 127.234 526.249" stroke="#231F20" stroke-width="1.14483"/>
<path d="M86.6118 484.127C98.1786 480.436 110.535 486.811 114.226 498.398C117.917 509.944 111.522 522.32 99.9747 526.012C88.408 529.703 76.032 523.307 72.3606 511.76C68.6695 500.194 75.045 487.837 86.6315 484.146L86.6118 484.127Z" fill="white" stroke="#231F20" stroke-width="1.14483"/>
<path d="M104.395 406.298C104.395 406.298 67.8589 406.969 56.3514 410.423C44.8439 413.878 34.1851 426.135 36.8301 436.103C36.8301 436.103 46.2848 435.156 52.0287 426.668C52.0287 426.668 59.549 432.511 64.7007 431.346L64.9178 443.505L60.8321 442.262C60.8321 442.262 58.1082 441.215 55.1474 444.808C52.2064 448.4 51.1009 450.473 51.1009 450.473C51.1009 450.473 45.2583 438.195 36.0405 438.136C36.0405 438.136 34.5602 456.414 44.3702 462.375C54.1999 468.316 64.8389 472.54 83.9655 469.303C103.092 466.086 108.323 465.553 108.323 465.553" fill="white"/>
<path d="M104.395 406.298C104.395 406.298 67.8589 406.969 56.3514 410.423C44.8439 413.878 34.1851 426.135 36.8301 436.103C36.8301 436.103 46.2848 435.156 52.0287 426.668C52.0287 426.668 59.549 432.511 64.7007 431.346L64.9178 443.505L60.8321 442.262C60.8321 442.262 58.1082 441.215 55.1474 444.808C52.2064 448.4 51.1009 450.473 51.1009 450.473C51.1009 450.473 45.2583 438.195 36.0405 438.136C36.0405 438.136 34.5602 456.414 44.3702 462.375C54.1999 468.316 64.8389 472.54 83.9655 469.303C103.092 466.086 108.323 465.553 108.323 465.553" stroke="#231F20" stroke-width="1.14483"/>
<path d="M77.3324 415.931C89.4123 414.726 100.17 423.55 101.374 435.63C102.578 447.69 93.7548 458.467 81.6749 459.671C69.595 460.875 58.8177 452.052 57.6334 439.972C56.4293 427.892 65.2525 417.135 77.3324 415.931Z" fill="white" stroke="#231F20" stroke-width="1.14483"/>
<path d="M110.948 343.51C110.948 343.51 75.0828 336.562 63.0818 337.549C51.1006 338.536 38.1324 348.307 38.6456 358.59C38.6456 358.59 48.1004 359.636 55.4826 352.531C55.4826 352.531 61.6211 359.814 66.8913 359.755L64.5819 371.697L60.8317 369.624C60.8317 369.624 58.3841 368.025 54.7522 370.927C51.1401 373.828 49.6202 375.644 49.6202 375.644C49.6202 375.644 46.4621 362.419 37.4614 360.426C37.4614 360.426 32.211 377.993 40.5603 385.869C48.9294 393.725 58.4631 400.061 77.8462 400.89C97.2294 401.719 102.44 402.291 102.44 402.291" fill="white"/>
<path d="M110.948 343.51C110.948 343.51 75.0828 336.562 63.0818 337.549C51.1006 338.536 38.1324 348.307 38.6456 358.59C38.6456 358.59 48.1004 359.636 55.4826 352.531C55.4826 352.531 61.6211 359.814 66.8913 359.755L64.5819 371.697L60.8317 369.624C60.8317 369.624 58.3841 368.025 54.7522 370.927C51.1401 373.828 49.6202 375.644 49.6202 375.644C49.6202 375.644 46.4621 362.419 37.4614 360.426C37.4614 360.426 32.211 377.993 40.5603 385.869C48.9294 393.725 58.4631 400.061 77.8462 400.89C97.2294 401.719 102.44 402.291 102.44 402.291" stroke="#231F20" stroke-width="1.14483"/>
<path d="M82.4663 347.3C94.5265 348.622 103.211 359.498 101.889 371.578C100.547 383.619 89.6906 392.323 77.6304 391.001C65.5702 389.658 56.8656 378.783 58.2078 366.722C59.5501 354.662 70.4062 345.958 82.4861 347.3H82.4663Z" fill="white" stroke="#231F20" stroke-width="1.14483"/>
<path d="M130.407 283.446C130.407 283.446 96.7722 269.195 84.8502 267.655C72.9282 266.116 58.2033 272.985 56.565 283.15C56.565 283.15 65.5854 286.131 74.2901 280.722C74.2901 280.722 78.7707 289.131 83.9422 290.157L79.1853 301.349L75.9481 298.546C75.9481 298.546 73.8755 296.474 69.7305 298.546C65.5854 300.638 63.73 302.079 63.73 302.079C63.73 302.079 63.3945 288.499 54.9859 284.67C54.9859 284.67 46.1826 300.757 52.7357 310.192C59.2889 319.627 67.283 327.798 86.074 332.654C104.865 337.51 109.839 339.148 109.839 339.148" fill="white"/>
<path d="M130.407 283.446C130.407 283.446 96.7722 269.195 84.8502 267.655C72.9282 266.116 58.2033 272.985 56.565 283.15C56.565 283.15 65.5854 286.131 74.2901 280.722C74.2901 280.722 78.7707 289.131 83.9422 290.157L79.1853 301.349L75.9481 298.546C75.9481 298.546 73.8755 296.474 69.7305 298.546C65.5854 300.638 63.73 302.079 63.73 302.079C63.73 302.079 63.3945 288.499 54.9859 284.67C54.9859 284.67 46.1826 300.757 52.7357 310.192C59.2889 319.627 67.283 327.798 86.074 332.654C104.865 337.51 109.839 339.148 109.839 339.148" stroke="#231F20" stroke-width="1.14483"/>
<path d="M101.764 281.236C113.292 285.045 119.529 297.48 115.7 309.027C111.89 320.535 99.4353 326.772 87.9278 322.963C76.4203 319.133 70.1632 306.698 73.9727 295.171C77.802 283.644 90.2372 277.406 101.764 281.236Z" fill="white" stroke="#231F20" stroke-width="1.14483"/>
<path d="M161.948 228.771C161.948 228.771 132.024 207.828 120.675 203.841C109.325 199.854 93.5145 203.505 89.784 213.118C89.784 213.118 97.9951 217.914 107.627 214.441C107.627 214.441 110.253 223.599 115.108 225.691L108.141 235.659L105.575 232.244C105.575 232.244 103.996 229.797 99.4952 230.962C95.0146 232.126 92.8829 233.172 92.8829 233.172C92.8829 233.172 95.3897 219.809 87.9681 214.322C87.9681 214.322 76.0065 228.238 80.4476 238.817C84.8888 249.397 91.0077 259.069 108.378 267.715C125.747 276.36 130.268 279.025 130.268 279.025" fill="white"/>
<path d="M161.948 228.771C161.948 228.771 132.024 207.828 120.675 203.841C109.325 199.854 93.5145 203.505 89.784 213.118C89.784 213.118 97.9951 217.914 107.627 214.441C107.627 214.441 110.253 223.599 115.108 225.691L108.141 235.659L105.575 232.244C105.575 232.244 103.996 229.797 99.4952 230.962C95.0146 232.126 92.8829 233.172 92.8829 233.172C92.8829 233.172 95.3897 219.809 87.9681 214.322C87.9681 214.322 76.0065 228.238 80.4476 238.817C84.8888 249.397 91.0077 259.069 108.378 267.715C125.747 276.36 130.268 279.025 130.268 279.025" stroke="#231F20" stroke-width="1.14483"/>
<path d="M134.412 220.638C144.893 226.757 148.406 240.239 142.268 250.72C136.149 261.181 122.668 264.695 112.206 258.576C101.745 252.437 98.2117 238.975 104.35 228.494C110.489 218.033 123.951 214.5 134.432 220.638H134.412Z" fill="white" stroke="#231F20" stroke-width="1.14483"/>
<path d="M204.194 181.852C204.194 181.852 179.284 155.126 169 148.869C158.736 142.612 142.492 142.889 136.846 151.514C136.846 151.514 143.873 157.91 154.039 156.528C154.039 156.528 154.71 166.022 159.013 169.082L150.111 177.372L148.295 173.503C148.295 173.503 147.249 170.779 142.61 170.976C137.972 171.194 135.682 171.766 135.682 171.766C135.682 171.766 140.913 159.232 134.794 152.304C134.794 152.304 120.207 163.417 122.339 174.707C124.49 185.978 128.458 196.715 143.637 208.795C158.815 220.875 162.704 224.408 162.704 224.408" fill="white"/>
<path d="M204.194 181.852C204.194 181.852 179.284 155.126 169 148.869C158.736 142.612 142.492 142.889 136.846 151.514C136.846 151.514 143.873 157.91 154.039 156.528C154.039 156.528 154.71 166.022 159.013 169.082L150.111 177.372L148.295 173.503C148.295 173.503 147.249 170.779 142.61 170.976C137.972 171.194 135.682 171.766 135.682 171.766C135.682 171.766 140.913 159.232 134.794 152.304C134.794 152.304 120.207 163.417 122.339 174.707C124.49 185.978 128.458 196.715 143.637 208.795C158.815 220.875 162.704 224.408 162.704 224.408" stroke="#231F20" stroke-width="1.14483"/>
<path d="M178.947 168.154C187.928 176.326 188.54 190.241 180.368 199.202C172.197 208.164 158.301 208.795 149.32 200.624C140.358 192.432 139.727 178.536 147.898 169.575C156.07 160.614 169.986 159.962 178.947 168.154Z" fill="white" stroke="#231F20" stroke-width="1.14483"/>
<path d="M255.255 144.744C255.255 144.744 236.444 113.419 227.72 105.149C218.976 96.8983 203.047 93.7796 195.724 101.043C195.724 101.043 201.27 108.761 211.495 109.511C211.495 109.511 210.172 118.946 213.745 122.835L203.323 129.092L202.356 124.927C202.356 124.927 201.902 122.045 197.323 121.275C192.743 120.525 190.394 120.604 190.394 120.604C190.394 120.604 198.112 109.432 193.572 101.379C193.572 101.379 176.992 109.215 176.735 120.683C176.499 132.171 178.137 143.481 190.473 158.462C202.81 173.444 205.869 177.707 205.869 177.707" fill="white"/>
<path d="M255.255 144.744C255.255 144.744 236.444 113.419 227.72 105.149C218.976 96.8983 203.047 93.7796 195.724 101.043C195.724 101.043 201.27 108.761 211.495 109.511C211.495 109.511 210.172 118.946 213.745 122.835L203.323 129.092L202.356 124.927C202.356 124.927 201.902 122.045 197.323 121.275C192.743 120.525 190.394 120.604 190.394 120.604C190.394 120.604 198.112 109.432 193.572 101.379C193.572 101.379 176.992 109.215 176.735 120.683C176.499 132.171 178.137 143.481 190.473 158.462C202.81 173.444 205.869 177.707 205.869 177.707" stroke="#231F20" stroke-width="1.14483"/>
<path d="M233.422 126.091C240.489 135.961 238.219 149.679 228.35 156.765C218.5 163.831 204.762 161.561 197.696 151.692C190.629 141.823 192.899 128.085 202.768 121.019C212.638 113.952 226.356 116.222 233.442 126.091H233.422Z" fill="white" stroke="#231F20" stroke-width="1.14483"/>
<path d="M312.95 119.104C312.95 119.104 301.067 84.5419 294.238 74.6529C287.408 64.764 272.466 58.4081 263.801 63.9744C263.801 63.9744 267.611 72.6791 277.46 75.5412C277.46 75.5412 274.203 84.5024 276.888 89.0422L265.38 92.9899L265.301 88.7067C265.301 88.7067 265.459 85.7853 261.136 84.0878C256.814 82.4101 254.484 81.9758 254.484 81.9758C254.484 81.9758 264.373 72.6593 261.59 63.8362C261.59 63.8362 243.747 68.0405 241.102 79.2125C238.477 90.3844 237.726 101.813 246.688 119.025C255.629 136.237 257.741 141.053 257.741 141.053" fill="white"/>
<path d="M312.95 119.104C312.95 119.104 301.067 84.5419 294.238 74.6529C287.408 64.764 272.466 58.4081 263.801 63.9744C263.801 63.9744 267.611 72.6791 277.46 75.5412C277.46 75.5412 274.203 84.5024 276.888 89.0422L265.38 92.9899L265.301 88.7067C265.301 88.7067 265.459 85.7853 261.136 84.0878C256.814 82.4101 254.484 81.9758 254.484 81.9758C254.484 81.9758 264.373 72.6593 261.59 63.8362C261.59 63.8362 243.747 68.0405 241.102 79.2125C238.477 90.3844 237.726 101.813 246.688 119.025C255.629 136.237 257.741 141.053 257.741 141.053" stroke="#231F20" stroke-width="1.14483"/>
<path d="M295.463 96.306C300.339 107.419 295.246 120.387 284.114 125.243C273.001 130.098 260.033 125.025 255.177 113.893C250.321 102.761 255.394 89.812 266.527 84.9366C277.639 80.081 290.608 85.1538 295.463 96.2862V96.306Z" fill="white" stroke="#231F20" stroke-width="1.14483"/>
<path d="M374.713 106.017C374.713 106.017 370.292 69.7579 365.673 58.6451C361.054 47.5521 347.751 38.2158 338.118 41.8674C338.118 41.8674 340.033 51.1839 349.073 56.0199C349.073 56.0199 344.02 64.1126 345.718 69.1065L333.638 70.5868L334.447 66.3825C334.447 66.3825 335.217 63.5599 331.328 60.9939C327.46 58.4476 325.269 57.5594 325.269 57.5594C325.269 57.5594 336.875 50.4931 336.006 41.3147C336.006 41.3147 317.669 41.7095 312.754 52.0919C307.859 62.4744 304.76 73.4884 309.932 92.1807C315.103 110.873 316.15 116.025 316.15 116.025" fill="white"/>
<path d="M374.713 106.017C374.713 106.017 370.292 69.7579 365.673 58.6451C361.054 47.5521 347.751 38.2158 338.118 41.8674C338.118 41.8674 340.033 51.1839 349.073 56.0199C349.073 56.0199 344.02 64.1126 345.718 69.1065L333.638 70.5868L334.447 66.3825C334.447 66.3825 335.217 63.5599 331.328 60.9939C327.46 58.4476 325.269 57.5594 325.269 57.5594C325.269 57.5594 336.875 50.4931 336.006 41.3147C336.006 41.3147 317.669 41.7095 312.754 52.0919C307.859 62.4744 304.76 73.4884 309.932 92.1807C315.103 110.873 316.15 116.025 316.15 116.025" stroke="#231F20" stroke-width="1.14483"/>
<path d="M362.359 80.081C364.807 91.9636 357.129 103.59 345.226 106.017C333.344 108.445 321.718 100.787 319.29 88.904C316.862 77.0018 324.521 65.3956 336.403 62.9481C348.286 60.5202 359.912 68.1787 362.34 80.081H362.359Z" fill="white" stroke="#231F20" stroke-width="1.14483"/>
<path d="M408.674 707.908C575.402 706.424 709.358 570.062 707.874 403.334C706.39 236.606 570.027 102.649 403.299 104.133C236.572 105.618 102.615 241.98 104.099 408.708C105.583 575.436 241.946 709.392 408.674 707.908Z" stroke="#231F20" stroke-width="2.28966"/>
<path d="M790.05 405.982C790.05 618.072 618.089 790.033 406 790.033C193.91 790.033 21.9688 618.072 21.9688 405.982C21.9688 193.893 193.93 21.9315 406 21.9315C618.07 21.9315 790.05 193.893 790.05 405.982Z" stroke="#231F20" stroke-width="2.92129"/>
<path d="M406.494 351.84L410.363 358.511L414.231 365.203H406.494H398.796L402.645 358.511L406.494 351.84Z" fill="#BE1E2D"/>
<path d="M422.382 354.189L424.119 361.709L425.876 369.21L418.493 366.979L411.111 364.729L416.737 359.459L422.382 354.189Z" fill="#BE1E2D"/>
<path d="M436.87 361.058L436.376 368.756L435.863 376.454L429.448 372.17L423.033 367.867L429.961 364.453L436.87 361.058Z" fill="#BE1E2D"/>
<path d="M448.751 371.835L446.046 379.059L443.323 386.283L438.427 380.303L433.532 374.341L441.151 373.078L448.751 371.835Z" fill="#BE1E2D"/>
<path d="M457.004 385.612L452.307 391.731L447.609 397.85L444.648 390.705L441.707 383.579L449.366 384.586L457.004 385.612Z" fill="#BE1E2D"/>
<path d="M460.518 401.541L454.241 406.042L447.964 410.522L447.214 402.844L446.483 395.166L453.491 398.344L460.518 401.541Z" fill="#BE1E2D"/>
<path d="M460.08 417.194L452.777 419.681L445.454 422.148L446.974 414.568L448.494 407.009L454.297 412.101L460.08 417.194Z" fill="#BE1E2D"/>
<path d="M453.924 432.294L446.206 432.55L438.488 432.787L442.14 425.977L445.792 419.187L449.858 425.74L453.924 432.294Z" fill="#BE1E2D"/>
<path d="M444.823 444.551L437.382 442.558L429.921 440.544L435.408 435.097L440.876 429.649L442.85 437.11L444.823 444.551Z" fill="#BE1E2D"/>
<path d="M432.171 454.223L425.638 450.137L419.085 446.051L425.895 442.419L432.724 438.807L432.448 446.505L432.171 454.223Z" fill="#BE1E2D"/>
<path d="M417.169 459.473L412.096 453.65L407.023 447.847L414.603 446.367L422.183 444.887L419.676 452.17L417.169 459.473Z" fill="#BE1E2D"/>
<path d="M401.026 460.835L397.867 453.808L394.689 446.781L402.368 447.551L410.046 448.341L405.546 454.598L401.026 460.835Z" fill="#BE1E2D"/>
<path d="M385.47 456.907L384.483 449.249L383.496 441.61L390.622 444.571L397.747 447.551L391.609 452.229L385.47 456.907Z" fill="#BE1E2D"/>
<path d="M371.732 448.637L373.015 441.018L374.279 433.419L380.24 438.314L386.181 443.248L378.957 445.933L371.732 448.637Z" fill="#BE1E2D"/>
<path d="M360.993 436.715L364.428 429.807L367.842 422.898L372.126 429.313L376.389 435.768L368.691 436.241L360.993 436.715Z" fill="#BE1E2D"/>
<path d="M354.164 422.188L359.454 416.582L364.744 410.956L366.974 418.339L369.185 425.76L361.665 423.984L354.164 422.188Z" fill="#BE1E2D"/>
<path d="M351.854 406.318L358.566 402.469L365.237 398.64L365.217 406.357L365.178 414.075L358.526 410.206L351.854 406.318Z" fill="#BE1E2D"/>
<path d="M354.265 390.448L361.785 388.731L369.305 386.994L367.055 394.356L364.766 401.758L359.515 396.093L354.265 390.448Z" fill="#BE1E2D"/>
<path d="M361.173 375.96L368.871 376.493L376.569 377.026L372.266 383.421L367.923 389.836L364.548 382.908L361.173 375.96Z" fill="#BE1E2D"/>
<path d="M371.988 364.117L379.193 366.861L386.417 369.585L380.436 374.48L374.436 379.335L373.212 371.736L371.988 364.117Z" fill="#BE1E2D"/>
<path d="M385.787 355.926L391.886 360.643L397.985 365.341L390.859 368.282L383.694 371.203L384.741 363.564L385.787 355.926Z" fill="#BE1E2D"/>
</svg>
