<svg width="1440" height="760" viewBox="0 0 1440 760" fill="none" xmlns="http://www.w3.org/2000/svg">
<g clip-path="url(#clip0_134_16317)">
<rect width="1440" height="760" fill="white"/>
<path d="M619.569 107.78C619.569 107.78 646.177 88.3377 654.356 122.097C662.534 155.855 644.121 208.044 690.171 225.429C736.221 242.815 756.676 229.526 756.676 242.815C756.676 256.104 752.579 266.354 730.068 270.436C707.557 274.533 707.557 292.947 700.39 298.057C693.224 303.166 691.184 313.402 678.908 315.442C678.908 315.442 698.35 317.483 713.695 312.373C729.04 307.264 735.177 285.765 748.482 285.765C748.482 285.765 718.804 306.235 739.275 315.442C759.745 324.649 755.648 293.96 740.303 304.195C740.303 304.195 762.814 298.057 768.952 298.057C775.09 298.057 810.905 289.878 812.946 273.505C814.987 257.132 807.836 261.229 807.836 261.229C807.836 261.229 828.306 256.119 828.306 236.677C828.306 217.235 805.795 222.36 805.795 222.36C805.795 222.36 817.043 204.975 796.588 202.918C776.134 200.862 711.669 208.028 697.337 150.746C683.005 93.463 665.619 75.0336 631.86 82.1997C598.101 89.3659 601.17 113.918 612.418 123.125C623.666 132.332 641.067 113.918 619.584 107.78H619.569Z" stroke="#3B2F21" stroke-opacity="0.07" stroke-width="3.11572"/>
<path d="M703.472 113.917C703.472 113.917 694.265 61.7447 634.926 65.8263C575.587 69.9079 588.892 128.234 606.277 136.428C623.663 144.623 641.064 136.428 641.064 121.084C641.064 121.084 648.23 149.733 643.105 178.382C643.105 178.382 646.517 209.071 666.971 224.759C687.442 240.447 707.211 245.229 726.996 245.899C746.781 246.585 738.586 254.078 723.584 259.546C708.582 264.999 699.718 273.863 689.483 288.881C679.247 303.898 672.424 305.254 662.874 305.254C662.874 305.254 661.519 326.394 681.974 328.45C702.444 330.491 713.349 326.409 713.349 326.409" stroke="#3B2F21" stroke-opacity="0.07" stroke-width="3.11572"/>
<path d="M753.607 306.609C753.607 306.609 809.534 316.844 830.005 269.781C850.475 222.718 817.729 189.988 792.491 189.302C767.254 188.617 741.331 191.343 714.739 157.241C688.131 123.14 708.601 87.6675 729.056 91.0792C749.51 94.4909 736.564 115.631 726.329 107.452C726.329 107.452 718.151 111.549 719.506 127.237C720.877 142.925 754.293 185.89 798.629 173.615C798.629 173.615 803.396 143.595 785.668 122.454C767.94 101.314 744.058 106.767 744.058 106.767" stroke="#3B2F21" stroke-opacity="0.07" stroke-width="3.11572"/>
<path d="M737.234 106.066C737.234 106.066 789.749 124.48 769.98 161.993C769.98 161.993 720.191 161.993 726.329 107.421" stroke="#3B2F21" stroke-opacity="0.07" stroke-width="3.11572"/>
<path d="M731.78 110.163C731.78 110.163 733.821 116.301 739.959 119.713C746.097 123.124 759.058 126.536 758.373 136.086C757.687 145.635 754.276 142.909 746.782 137.441C739.289 131.973 725.642 125.851 730.409 108.792" stroke="#3B2F21" stroke-opacity="0.07" stroke-width="3.11572"/>
<path d="M755.115 135.073C753.121 137.815 747.918 137.441 743.509 134.232C739.1 131.023 737.138 126.193 739.116 123.452C741.11 120.71 746.313 121.084 750.722 124.308C755.131 127.518 757.109 132.347 755.115 135.089V135.073Z" stroke="#3B2F21" stroke-opacity="0.07" stroke-width="3.11572"/>
<path d="M799.982 189.972C799.982 189.972 817.711 187.932 818.396 170.188C819.082 152.459 799.982 154.5 799.297 164.05" stroke="#3B2F21" stroke-opacity="0.07" stroke-width="3.11572"/>
<path d="M734.165 297.059C734.165 297.059 707.557 337.984 732.125 351.288C732.125 351.288 806.809 362.536 845.693 306.266C884.577 249.996 853.871 192.698 828.307 174.285" stroke="#3B2F21" stroke-opacity="0.07" stroke-width="3.11572"/>
<path d="M754.635 392.198C761.415 392.198 766.911 386.702 766.911 379.922C766.911 373.142 761.415 367.646 754.635 367.646C747.856 367.646 742.359 373.142 742.359 379.922C742.359 386.702 747.856 392.198 754.635 392.198Z" stroke="#3B2F21" stroke-opacity="0.07" stroke-width="3.11572"/>
<path d="M795.047 377.881C801.543 377.881 806.809 372.615 806.809 366.119C806.809 359.623 801.543 354.357 795.047 354.357C788.551 354.357 783.285 359.623 783.285 366.119C783.285 372.615 788.551 377.881 795.047 377.881Z" stroke="#3B2F21" stroke-opacity="0.07" stroke-width="3.11572"/>
<path d="M837.498 354.342C844.278 354.342 849.774 348.846 849.774 342.066C849.774 335.286 844.278 329.79 837.498 329.79C830.719 329.79 825.222 335.286 825.222 342.066C825.222 348.846 830.719 354.342 837.498 354.342Z" stroke="#3B2F21" stroke-opacity="0.07" stroke-width="3.11572"/>
<path d="M865.633 310.363C871.002 310.363 875.354 306.011 875.354 300.642C875.354 295.274 871.002 290.921 865.633 290.921C860.264 290.921 855.912 295.274 855.912 300.642C855.912 306.011 860.264 310.363 865.633 310.363Z" stroke="#3B2F21" stroke-opacity="0.07" stroke-width="3.11572"/>
<path d="M877.408 267.382C881.366 267.382 884.575 264.174 884.575 260.216C884.575 256.258 881.366 253.05 877.408 253.05C873.451 253.05 870.242 256.258 870.242 260.216C870.242 264.174 873.451 267.382 877.408 267.382Z" stroke="#3B2F21" stroke-opacity="0.07" stroke-width="3.11572"/>
<path d="M873.313 230.804C877.976 230.804 881.757 227.023 881.757 222.36C881.757 217.697 877.976 213.917 873.313 213.917C868.65 213.917 864.869 217.697 864.869 222.36C864.869 227.023 868.65 230.804 873.313 230.804Z" stroke="#3B2F21" stroke-opacity="0.07" stroke-width="3.11572"/>
<path d="M861.035 201.905C864.993 201.905 868.201 198.697 868.201 194.739C868.201 190.781 864.993 187.573 861.035 187.573C857.077 187.573 853.869 190.781 853.869 194.739C853.869 198.697 857.077 201.905 861.035 201.905Z" stroke="#3B2F21" stroke-opacity="0.07" stroke-width="3.11572"/>
<path d="M840.569 174.284C844.526 174.284 847.735 171.076 847.735 167.118C847.735 163.161 844.526 159.952 840.569 159.952C836.611 159.952 833.402 163.161 833.402 167.118C833.402 171.076 836.611 174.284 840.569 174.284Z" stroke="#3B2F21" stroke-opacity="0.07" stroke-width="3.11572"/>
<path d="M732.122 351.289C732.122 351.289 725.984 356.398 727.013 368.674C728.041 380.95 734.179 402.433 746.455 402.433C758.731 402.433 835.471 390.157 872.299 334.9C909.126 279.658 891.741 208.028 870.258 178.366C848.775 148.705 818.085 134.372 818.085 134.372" stroke="#3B2F21" stroke-opacity="0.07" stroke-width="3.11572"/>
<path d="M692.213 88.3376C692.213 88.3376 779.173 84.2404 813.96 80.1588C848.747 76.0617 883.534 71.9801 917.292 78.118C951.051 84.256 980.728 99.6009 990.963 96.5319C990.963 96.5319 988.923 112.905 975.619 112.905C962.314 112.905 959.245 92.4348 949.01 91.4222C938.775 90.4095 909.114 89.3814 909.114 89.3814" stroke="#3B2F21" stroke-opacity="0.07" stroke-width="3.11572"/>
<path d="M916.277 99.5853C916.277 99.5853 964.368 103.682 971.519 138.469C978.685 173.256 942.87 160.981 942.87 142.567C942.87 124.153 965.381 134.388 940.829 116.987C916.277 99.6009 897.863 103.683 897.863 103.683" stroke="#3B2F21" stroke-opacity="0.07" stroke-width="3.11572"/>
<path d="M739.273 95.5036C739.273 95.5036 807.819 89.3656 862.048 103.682C916.277 117.999 928.553 141.538 928.553 141.538C928.553 141.538 917.306 150.745 927.525 164.049C937.76 177.353 999.14 195.767 1021.65 180.422" stroke="#3B2F21" stroke-opacity="0.07" stroke-width="3.11572"/>
<path d="M1015.53 105.38C1015.53 105.38 1031.22 54.2202 1072.14 67.1816L1071.46 77.4167C1071.46 77.4167 1090.56 78.7877 1087.14 92.4189C1083.73 106.066 1069.42 102.638 1072.83 93.1044C1072.83 93.1044 1067.37 106.751 1065.32 116.301C1063.26 125.851 1044.85 153.144 1023.71 153.814" stroke="#3B2F21" stroke-opacity="0.07" stroke-width="3.11572"/>
<path d="M1040.77 148.362C1040.77 148.362 1051.67 157.226 1042.14 167.461C1034.63 174.285 1031.22 165.42 1031.22 162.009C1031.22 162.009 1023.04 157.226 1018.26 161.323" stroke="#3B2F21" stroke-opacity="0.07" stroke-width="3.11572"/>
<path d="M1003.25 172.914C1003.25 172.914 1015.53 164.735 1025.08 167.461C1025.08 167.461 1008.02 174.284 1025.08 179.737C1025.08 179.737 1040.08 173.599 1029.18 162.009" stroke="#3B2F21" stroke-opacity="0.07" stroke-width="3.11572"/>
<path d="M1018.94 144.95C1018.94 144.95 1044.86 131.303 1049.63 116.301C1054.41 101.299 1070.79 91.0638 1075.55 91.0638C1080.32 91.0638 1074.18 90.3783 1074.18 90.3783" stroke="#3B2F21" stroke-opacity="0.07" stroke-width="3.11572"/>
<path d="M1005.98 146.305L1012.8 137.441C1012.8 137.441 1005.29 128.577 998.486 132.659" stroke="#3B2F21" stroke-opacity="0.07" stroke-width="3.11572"/>
<path d="M1012.8 136.086C1012.8 136.086 1035.31 129.948 1035.31 114.946C1035.31 99.9436 1044.86 102.67 1045.55 108.122" stroke="#3B2F21" stroke-opacity="0.07" stroke-width="3.11572"/>
<path d="M982.096 118.342C982.096 118.342 1011.43 128.577 1015.51 108.107C1019.61 87.6366 987.548 97.2018 1001.86 110.833" stroke="#3B2F21" stroke-opacity="0.07" stroke-width="3.11572"/>
<path d="M1006.65 119.713C1006.65 119.713 1018.93 132.674 1026.44 114.26C1026.44 114.26 1015.51 121.084 1015.51 108.122" stroke="#3B2F21" stroke-opacity="0.07" stroke-width="3.11572"/>
<path d="M895.48 114.26C895.48 114.26 925.5 127.907 917.991 152.459C917.991 152.459 913.894 162.009 911.853 162.694C911.853 162.694 933.679 157.927 924.815 173.615C915.951 189.302 890.713 174.97 893.44 161.339C893.44 161.339 871.614 173.615 867.517 147.692C864.105 133.375 881.164 140.183 881.164 140.183C881.164 140.183 872.284 127.222 861.379 125.181" stroke="#3B2F21" stroke-opacity="0.07" stroke-width="3.11572"/>
<path d="M823.182 109.478C823.182 109.478 881.165 113.575 864.107 152.443C864.107 152.443 858.654 157.896 850.46 155.855" stroke="#3B2F21" stroke-opacity="0.07" stroke-width="3.11572"/>
<path d="M1141.72 366.633L1158.07 349.575L1147.85 335.258" stroke="#3B2F21" stroke-opacity="0.07" stroke-width="3.11572"/>
<path d="M1149.89 376.183L1170.36 347.534L1149.21 322.297" stroke="#3B2F21" stroke-opacity="0.07" stroke-width="3.11572"/>
<path d="M1166.95 374.812L1186.05 346.163L1164.9 320.24" stroke="#3B2F21" stroke-opacity="0.07" stroke-width="3.11572"/>
<path d="M1183.33 373.457L1201.74 346.849L1178.54 320.24" stroke="#3B2F21" stroke-opacity="0.07" stroke-width="3.11572"/>
<path d="M1199 372.771L1217.43 343.437L1191.51 317.514" stroke="#3B2F21" stroke-opacity="0.07" stroke-width="3.11572"/>
<path d="M1211.29 368.674L1229.7 341.396L1210.6 315.473" stroke="#3B2F21" stroke-opacity="0.07" stroke-width="3.11572"/>
<path d="M1226.29 368.674L1243.35 337.984L1223.56 315.473" stroke="#3B2F21" stroke-opacity="0.07" stroke-width="3.11572"/>
<path d="M1240.61 365.948L1259.02 334.573L1238.57 310.691" stroke="#3B2F21" stroke-opacity="0.07" stroke-width="3.11572"/>
<path d="M1255.63 363.221L1273.36 332.532L1252.22 307.279" stroke="#3B2F21" stroke-opacity="0.07" stroke-width="3.11572"/>
<path d="M1262.43 303.883L1285.63 327.749L1269.26 357.754" stroke="#3B2F21" stroke-opacity="0.07" stroke-width="3.11572"/>
<path d="M1284.94 346.849L1298.59 323.652L1280.18 303.883" stroke="#3B2F21" stroke-opacity="0.07" stroke-width="3.11572"/>
<path d="M1291.08 297.06L1306.77 315.473L1299.27 336.614" stroke="#3B2F21" stroke-opacity="0.07" stroke-width="3.11572"/>
<path d="M1314.28 318.2L1317.01 307.279L1302.69 292.962" stroke="#3B2F21" stroke-opacity="0.07" stroke-width="3.11572"/>
<path d="M1312.24 285.453L1324.51 293.648" stroke="#3B2F21" stroke-opacity="0.07" stroke-width="3.11572"/>
<path d="M1319.06 281.372L1327.24 284.098" stroke="#3B2F21" stroke-opacity="0.07" stroke-width="3.11572"/>
<path d="M1324.52 274.548H1330.65" stroke="#3B2F21" stroke-opacity="0.07" stroke-width="3.11572"/>
<path d="M1146.48 324.337C1146.48 324.337 1192.86 317.514 1246.06 310.021C1299.26 302.512 1329.28 258.175 1329.28 258.175C1329.28 258.175 1308.13 287.51 1262.43 299.1C1216.74 310.691 1153.31 308.65 1146.48 315.473" stroke="#3B2F21" stroke-opacity="0.07" stroke-width="3.11572"/>
<path d="M1135.58 393.226C1135.58 393.226 1174.46 387.088 1201.74 382.991C1229.02 378.894 1284.28 359.125 1298.59 344.107C1298.59 344.107 1264.49 366.618 1216.06 372.07C1167.62 377.523 1138.99 378.894 1138.99 378.894" stroke="#3B2F21" stroke-opacity="0.07" stroke-width="3.11572"/>
<path d="M1115.79 455.291C1115.79 455.291 1167.64 447.112 1185.37 447.112C1203.1 447.112 1254.26 434.151 1269.26 424.601C1269.26 424.601 1240.61 440.974 1187.41 451.879C1134.21 462.8 1111.7 464.841 1111.7 464.841" stroke="#3B2F21" stroke-opacity="0.07" stroke-width="3.11572"/>
<path d="M1057.81 532.374C1057.81 532.374 1104.87 524.865 1130.11 522.139C1155.34 519.413 1192.17 506.451 1207.17 500.313C1207.17 500.313 1152.6 513.96 1102.81 519.413C1053.02 524.865 1070.07 522.824 1070.07 522.824" stroke="#3B2F21" stroke-opacity="0.07" stroke-width="3.11572"/>
<path d="M905.901 251.212C905.901 251.212 898.61 315.91 875.351 346.132C854.087 373.753 817.711 396.653 760.413 411.656C760.413 411.656 750.863 425.302 762.453 451.895C774.044 478.488 808.831 550.118 825.204 571.258C841.577 592.398 836.109 610.127 819.751 611.498C803.378 612.869 795.2 588.317 804.749 582.163C814.299 576.025 819.066 582.849 819.066 582.849C819.066 582.849 795.869 551.473 785.65 535.1C775.43 518.727 740.285 431.082 747.451 411.64C747.451 411.64 733.119 420.504 727.666 410.954C722.214 401.405 707.882 361.165 722.214 350.93C722.214 350.93 708.567 335.928 713.692 312.389" stroke="#3B2F21" stroke-opacity="0.07" stroke-width="3.11572"/>
<path d="M780.883 490.078C780.883 490.078 804.079 478.488 804.079 470.979C804.079 470.979 810.903 476.431 818.396 469.608C825.905 462.784 839.536 461.429 840.222 447.782C840.222 447.782 852.498 446.411 857.966 440.959C863.418 435.506 873.653 432.095 873.653 423.916C873.653 423.916 881.162 416.407 883.888 415.052C886.615 413.696 902.302 404.147 902.988 391.185C902.988 391.185 909.811 394.597 914.578 389.144C919.361 383.692 932.992 366.633 934.363 355.728L939.146 348.905" stroke="#3B2F21" stroke-opacity="0.07" stroke-width="3.11572"/>
<path d="M802.711 531.003C802.711 531.003 812.93 518.727 813.616 513.275C813.616 513.275 819.068 522.139 824.537 520.784C829.989 519.428 859.324 508.508 862.05 494.861C862.05 494.861 867.502 497.587 872.955 494.861C878.407 492.135 900.918 482.585 903.645 460.759C903.645 460.759 903.645 464.841 911.823 459.388C920.002 453.936 932.294 443.015 932.294 434.836V426.658C932.294 426.658 935.02 432.11 945.94 421.891C956.845 411.656 958.902 403.477 959.587 396.653C959.587 396.653 967.096 400.751 970.508 395.298C973.92 389.846 980.058 383.708 980.058 373.472" stroke="#3B2F21" stroke-opacity="0.07" stroke-width="3.11572"/>
<path d="M824.535 566.476C824.535 566.476 834.085 575.34 839.537 575.34C844.99 575.34 851.813 553.514 851.128 550.788C850.442 548.062 859.307 558.967 868.186 556.24C877.051 553.514 897.521 526.906 898.876 513.275C900.232 499.628 909.096 516.001 918.661 516.001C928.226 516.001 947.31 479.843 944.584 458.017C944.584 458.017 964.369 470.293 971.192 468.253C978.015 466.212 997.099 444.371 998.47 425.287C998.47 425.287 1032.57 405.517 1008.02 371.4" stroke="#3B2F21" stroke-opacity="0.07" stroke-width="3.11572"/>
<path d="M857.281 592.398C857.281 592.398 873.654 596.496 882.519 596.496C882.519 596.496 898.892 560.353 886.616 543.295C886.616 543.295 898.892 560.338 927.541 554.885C927.541 554.885 941.857 533.745 933.679 514.646C925.5 495.546 932.993 513.275 932.993 513.275C932.993 513.275 947.325 531.689 969.151 520.098C969.151 520.098 984.153 497.587 976.66 476.447C976.66 476.447 982.113 496.232 1002.58 496.232C1002.58 496.232 1023.05 466.897 1007.37 448.483C1007.37 448.483 1018.27 454.621 1033.29 449.839C1033.29 449.839 1035.34 410.955 1020.33 399.364C1020.33 399.364 1027.15 411.64 1036.7 402.09C1046.25 392.541 1061.25 376.168 1055.11 356.383C1055.11 356.383 1034.64 343.421 1016.23 356.383" stroke="#3B2F21" stroke-opacity="0.07" stroke-width="3.11572"/>
<path d="M1048.26 352.301C1048.26 352.301 1078.26 324.338 1059.85 307.964" stroke="#3B2F21" stroke-opacity="0.07" stroke-width="3.11572"/>
<path d="M789.747 419.149C789.747 419.149 784.965 454.621 804.064 470.994C804.064 470.994 796.555 494.175 813.614 513.275" stroke="#3B2F21" stroke-opacity="0.07" stroke-width="3.11572"/>
<path d="M825.906 398.679C825.906 398.679 820.438 434.821 840.223 447.782C840.223 447.782 833.399 479.843 862.048 494.845" stroke="#3B2F21" stroke-opacity="0.07" stroke-width="3.11572"/>
<path d="M864.107 365.948C864.107 365.948 848.419 406.187 875.027 421.19C875.027 421.19 871.616 449.153 905.032 461.429" stroke="#3B2F21" stroke-opacity="0.07" stroke-width="3.11572"/>
<path d="M887.973 364.577C887.973 364.577 887.287 383.676 903.66 389.814C903.66 389.814 905.701 421.875 933.665 428.013" stroke="#3B2F21" stroke-opacity="0.07" stroke-width="3.11572"/>
<path d="M913.207 330.475C913.207 330.475 915.933 355.027 934.347 355.713C934.347 355.713 934.347 385.047 959.584 396.638L967.093 397.993C967.093 397.993 967.093 423.916 998.469 425.271" stroke="#3B2F21" stroke-opacity="0.07" stroke-width="3.11572"/>
<path d="M932.309 436.207C932.309 436.207 934.349 453.936 944.585 458.033" stroke="#3B2F21" stroke-opacity="0.07" stroke-width="3.11572"/>
<path d="M882.518 488.037C882.518 488.037 883.873 506.451 902.302 509.177" stroke="#3B2F21" stroke-opacity="0.07" stroke-width="3.11572"/>
<path d="M836.81 515.315C836.81 515.315 833.399 539.867 851.127 550.788" stroke="#3B2F21" stroke-opacity="0.07" stroke-width="3.11572"/>
<path d="M759.059 438.934C759.059 438.934 788.393 423.931 790.434 415.067C790.434 415.067 793.16 425.302 800.669 419.85C808.178 414.397 824.442 403.477 827.947 395.968L836.422 381.449C836.422 381.449 830.673 399.38 839.538 399.38C839.538 399.38 859.167 385.608 860.678 378.239C862.376 369.936 865.46 361.181 865.46 361.181C865.46 361.181 870.913 375.498 875.695 372.102C880.478 368.69 902.304 359.14 905.03 338.685" stroke="#3B2F21" stroke-opacity="0.07" stroke-width="3.11572"/>
<path d="M889.344 318.2C889.344 318.2 894.22 348.017 908.443 335.258C919.317 325.49 921.093 320.209 922.495 313.697" stroke="#3B2F21" stroke-opacity="0.07" stroke-width="3.11572"/>
<path d="M789.748 403.461V419.149" stroke="#3B2F21" stroke-opacity="0.07" stroke-width="3.11572"/>
<path d="M877.41 190.144C877.41 190.144 899.921 220.319 908.614 262.787C917.307 305.254 932.153 345.665 945.442 354.872C958.746 364.078 972.549 381.48 1005.29 367.662C1005.29 367.662 1007.85 353.345 1008.88 349.248C1009.91 345.151 1028.32 316.003 1071.8 300.144C1115.28 284.285 1146.48 285.827 1146.48 285.827C1146.48 285.827 1236.51 280.717 1283.08 267.413C1329.63 254.109 1333.72 247.971 1333.72 247.971C1333.72 247.971 1327.07 302.2 1317.86 330.335C1308.66 358.47 1280.52 433.154 1248.8 471.524C1217.09 509.894 1135.75 587.647 1074.87 610.158" stroke="#3B2F21" stroke-opacity="0.07" stroke-width="3.11572"/>
<path d="M1143.93 284.784C1143.93 284.784 1148.54 324.68 1144.96 347.706C1141.38 370.731 1129.61 418.806 1123.48 437.236C1117.34 455.665 1080 521.126 1030.38 553.872L1024.75 549.261C1024.75 549.261 1085.64 507.308 1109.67 446.443C1133.71 385.561 1138.84 322.64 1131.16 286.326" stroke="#3B2F21" stroke-opacity="0.07" stroke-width="3.11572"/>
<path d="M997.616 368.16C997.616 368.16 987.895 336.956 1011.93 306.266C1035.97 275.576 1060.02 279.159 1057.97 266.369C1055.93 253.579 1062.06 257.677 1065.13 262.786C1068.2 267.896 1071.27 291.95 1060.02 298.602C1060.02 298.602 998.13 309.849 1002.21 367.147" stroke="#3B2F21" stroke-opacity="0.07" stroke-width="3.11572"/>
<path d="M1068.73 273.006C1068.73 273.006 1076.91 266.354 1088.69 264.827C1088.69 264.827 1093.3 261.758 1089.72 256.134C1086.13 250.511 1100.47 255.62 1100.47 262.272C1100.47 268.924 1099.44 277.103 1095.85 280.686C1092.27 284.269 1064.65 295.517 1064.65 295.517" stroke="#3B2F21" stroke-opacity="0.07" stroke-width="3.11572"/>
<path d="M1095.84 280.686C1095.84 280.686 1126.53 276.589 1158.76 274.034C1190.99 271.479 1240.1 267.896 1277.44 256.134C1314.78 244.373 1341.39 235.664 1341.39 235.664C1341.39 235.664 1347.01 269.937 1337.29 303.197C1327.57 336.442 1296.88 438.762 1215.54 525.223C1146.48 587.631 1091.74 613.725 1091.74 613.725" stroke="#3B2F21" stroke-opacity="0.07" stroke-width="3.11572"/>
<path d="M1096.01 291.607C1096.01 291.607 1103.52 315.489 1093.28 326.394L1100.79 328.435C1100.79 328.435 1103.52 356.398 1083.73 363.907C1083.73 363.907 1096.69 376.869 1093.97 383.006C1091.24 389.144 1081 408.929 1073.5 408.929C1073.5 408.929 1053.04 438.264 1033.94 436.207" stroke="#3B2F21" stroke-opacity="0.07" stroke-width="3.11572"/>
<path d="M1098.05 312.747C1098.05 312.747 1128.07 313.433 1129.42 322.982C1129.42 322.982 1120.56 350.26 1113.74 350.26C1113.74 350.26 1126.01 357.084 1126.7 361.181C1126.7 361.181 1120.56 383.692 1107.6 385.047C1107.6 385.047 1119.88 387.774 1119.88 391.871C1119.88 391.871 1115.09 411.64 1100.78 415.052C1100.78 415.052 1109.64 425.972 1101.46 432.796C1093.28 439.619 1081.68 447.112 1081.68 447.112C1081.68 447.112 1067.36 469.623 1050.99 464.841C1050.99 464.841 1049.63 482.569 1047.58 483.255C1045.52 483.94 1032.57 488.707 1032.57 488.707C1032.57 488.707 1040.08 511.218 1033.94 526.22L1002.57 530.318C1002.57 530.318 1009.39 558.967 1000.53 567.145C1000.53 567.145 984.856 567.8 972.034 562.067C971.754 561.942 971.474 561.817 971.193 561.677C958.232 555.539 962.329 571.227 962.329 571.227C962.329 571.227 954.15 598.505 945.27 601.917C945.27 601.917 925.486 601.917 920.033 592.367L915.936 597.82L905.031 596.464C905.031 596.464 905.716 614.878 902.305 619.645" stroke="#3B2F21" stroke-opacity="0.07" stroke-width="3.11572"/>
<path d="M1053.04 382.321C1053.04 382.321 1072.83 398.009 1071.46 408.929" stroke="#3B2F21" stroke-opacity="0.07" stroke-width="3.11572"/>
<path d="M1053.73 355.027C1053.73 355.027 1072.83 353.656 1083.73 363.891" stroke="#3B2F21" stroke-opacity="0.07" stroke-width="3.11572"/>
<path d="M1063.95 329.79C1063.95 329.79 1076.23 323.652 1093.95 325.008" stroke="#3B2F21" stroke-opacity="0.07" stroke-width="3.11572"/>
<path d="M885.93 588.986C885.93 588.986 898.206 596.495 907.07 597.165" stroke="#3B2F21" stroke-opacity="0.07" stroke-width="3.11572"/>
<path d="M920.031 592.398C920.031 592.398 926.855 578.751 926.169 554.885C926.169 554.885 945.269 571.258 961.642 569.202C961.642 569.202 984.153 554.885 969.151 520.098C969.151 520.098 973.232 529.648 999.84 529.648C999.84 529.648 1004.62 511.919 1002.57 496.232" stroke="#3B2F21" stroke-opacity="0.07" stroke-width="3.11572"/>
<path d="M1011.43 481.899C1011.43 481.899 1023.02 489.392 1032.57 488.723" stroke="#3B2F21" stroke-opacity="0.07" stroke-width="3.11572"/>
<path d="M1038.71 447.798C1038.71 447.798 1050.98 457.348 1051.67 466.897" stroke="#3B2F21" stroke-opacity="0.07" stroke-width="3.11572"/>
<path d="M1066 418.463C1066 418.463 1084.42 428.013 1084.42 444.386" stroke="#3B2F21" stroke-opacity="0.07" stroke-width="3.11572"/>
<path d="M1093.97 382.991H1109.66" stroke="#3B2F21" stroke-opacity="0.07" stroke-width="3.11572"/>
<path d="M1082.36 403.461C1082.36 403.461 1096.68 408.914 1102.83 415.052" stroke="#3B2F21" stroke-opacity="0.07" stroke-width="3.11572"/>
<path d="M1096.7 349.575C1096.7 349.575 1106.84 347.441 1113.91 349.777C1114.83 350.073 1115.7 350.463 1116.48 350.93" stroke="#3B2F21" stroke-opacity="0.07" stroke-width="3.11572"/>
<path d="M913.207 626.5C913.207 626.5 921.386 631.952 930.935 631.952C930.935 631.952 935.033 621.717 935.718 613.538C935.718 613.538 948.679 624.459 959.584 626.5C959.584 626.5 971.86 616.95 966.408 596.495C966.408 596.495 984.136 599.222 993.686 598.536C993.686 598.536 997.783 578.066 994.371 569.202C994.371 569.202 1023.71 580.107 1038.02 578.751L1039.38 565.105C1039.38 565.105 1016.2 536.455 1003.24 535.77" stroke="#3B2F21" stroke-opacity="0.07" stroke-width="3.11572"/>
<path d="M965.725 643.559C965.725 643.559 967.765 629.242 965.725 619.007C965.725 619.007 976.63 626.516 991.647 627.185C991.647 627.185 997.1 613.539 993.018 601.948C993.018 601.948 1003.25 616.28 1023.71 612.869C1023.71 612.869 1033.26 595.826 1023.71 582.179C1023.71 582.179 1022.34 599.907 1046.89 599.907C1046.89 599.907 1051.67 590.358 1051.67 587.631C1051.67 584.905 1039.4 565.12 1039.4 565.12" stroke="#3B2F21" stroke-opacity="0.07" stroke-width="3.11572"/>
<path d="M991.649 647.656C991.649 647.656 997.647 635.006 991.867 627.45C991.805 627.357 991.727 627.279 991.649 627.185C985.511 619.677 992.334 633.323 1014.85 635.364C1014.85 635.364 1018.26 625.815 1016.2 614.894" stroke="#3B2F21" stroke-opacity="0.07" stroke-width="3.11572"/>
<path d="M958.23 585.575L966.409 595.125" stroke="#3B2F21" stroke-opacity="0.07" stroke-width="3.11572"/>
<path d="M834.086 571.944C834.086 571.944 908.427 640.147 965.04 645.615C1021.65 651.067 1030.52 658.576 1050.3 678.361C1070.09 698.146 1085.09 722.012 1075.54 725.424C1065.99 728.835 1042.12 717.915 1034.61 717.915C1027.1 717.915 995.06 742.467 995.06 742.467C995.06 742.467 1008.02 747.249 1021.67 743.838C1035.31 740.426 1038.71 733.603 1038.71 733.603C1038.71 733.603 1031.89 747.919 1040.08 746.564C1048.26 745.209 1044.85 743.152 1057.81 745.209C1070.77 747.249 1087.81 745.894 1098.73 740.426C1109.66 734.973 1099.42 738.385 1099.42 738.385C1099.42 738.385 1107.6 748.62 1113.74 748.62C1119.88 748.62 1121.92 737.715 1121.92 737.715C1121.92 737.715 1122.6 745.894 1138.96 746.58C1155.33 747.265 1159.43 735.675 1165.57 745.224C1171.71 754.774 1175.8 756.145 1175.8 756.145L1178.53 742.498C1178.53 742.498 1203.08 750.677 1204.45 754.774C1204.45 754.774 1205.14 728.181 1179.9 723.399C1154.66 718.616 1132.84 719.301 1132.84 719.301C1132.84 719.301 1143.07 709.066 1141.02 702.243C1138.96 695.419 1134.19 695.419 1128.05 696.79C1121.92 698.161 1113.72 696.105 1106.23 685.87C1098.72 675.635 1089.17 651.083 1093.95 638.807C1098.73 626.531 1101.46 623.119 1098.05 619.022C1094.64 614.925 1073.5 613.57 1065.99 604.02C1058.48 594.47 1051.67 587.647 1051.67 587.647" stroke="#3B2F21" stroke-opacity="0.07" stroke-width="3.11572"/>
<path d="M833.415 585.575C833.415 585.575 863.435 618.321 872.299 623.088C881.163 627.855 919.362 650.366 928.226 653.092C937.091 655.819 937.106 661.957 929.597 674.918C922.088 687.88 916.636 699.47 913.91 704.938C911.183 710.391 910.498 726.078 887.987 724.723C865.476 723.368 840.924 718.585 838.198 719.94C835.471 721.296 808.193 740.41 808.193 740.41C808.193 740.41 823.196 748.589 832.06 745.193C840.924 741.797 849.804 735.643 849.804 735.643C849.804 735.643 845.037 741.096 849.804 743.822C854.571 746.548 853.216 742.467 866.847 741.781C880.494 741.096 877.767 745.193 890.729 745.193C903.69 745.193 910.514 734.958 910.514 734.958C910.514 734.958 918.022 747.234 920.063 747.234C922.104 747.234 933.71 735.643 933.71 735.643C933.71 735.643 932.339 743.152 939.848 743.822C947.357 744.508 954.85 741.781 959.633 743.822C964.415 745.863 968.497 747.919 968.497 747.919C968.497 747.919 977.361 747.919 977.361 743.137C977.361 738.354 986.911 739.725 988.952 741.096C990.993 742.467 997.131 735.643 992.363 731.546C987.581 727.449 959.617 726.764 959.617 726.764C959.617 726.764 969.852 718.585 969.852 715.173C969.852 711.762 958.947 714.488 954.165 711.762C949.382 709.035 948.027 706.994 952.794 700.857C957.576 694.719 987.581 689.266 987.581 689.266C987.581 689.266 1018.96 679.716 1013.5 670.852C1008.05 661.988 1009.41 655.164 1009.41 655.164" stroke="#3B2F21" stroke-opacity="0.07" stroke-width="3.11572"/>
<path d="M1039.39 536.471L1033.94 526.236L1056.45 522.824" stroke="#3B2F21" stroke-opacity="0.07" stroke-width="3.11572"/>
<path d="M1069.4 506.451L1061.22 488.037C1061.22 488.037 1076.91 490.764 1085.1 486.666C1093.3 482.569 1081.01 462.115 1081.01 462.115C1081.01 462.115 1097.38 462.8 1103.52 456.662" stroke="#3B2F21" stroke-opacity="0.07" stroke-width="3.11572"/>
<path d="M1113.06 438.248L1103.51 432.11" stroke="#3B2F21" stroke-opacity="0.07" stroke-width="3.11572"/>
<path d="M1122.62 408.914L1111.7 409.599" stroke="#3B2F21" stroke-opacity="0.07" stroke-width="3.11572"/>
<path d="M1129.44 381.635L1114.42 382.991" stroke="#3B2F21" stroke-opacity="0.07" stroke-width="3.11572"/>
<path d="M1134.21 345.478L1119.89 344.792" stroke="#3B2F21" stroke-opacity="0.07" stroke-width="3.11572"/>
<path d="M1145.13 303.867L1157.4 285.453" stroke="#3B2F21" stroke-opacity="0.07" stroke-width="3.11572"/>
<path d="M1151.27 312.062L1171.03 284.784" stroke="#3B2F21" stroke-opacity="0.07" stroke-width="3.11572"/>
<path d="M1164.9 310.005L1181.95 284.098" stroke="#3B2F21" stroke-opacity="0.07" stroke-width="3.11572"/>
<path d="M1183.32 307.964L1201.74 281.372" stroke="#3B2F21" stroke-opacity="0.07" stroke-width="3.11572"/>
<path d="M1199.68 306.609L1216.74 280.686" stroke="#3B2F21" stroke-opacity="0.07" stroke-width="3.11572"/>
<path d="M1214.02 305.924L1234.47 277.275" stroke="#3B2F21" stroke-opacity="0.07" stroke-width="3.11572"/>
<path d="M1229.7 305.924L1248.8 274.548" stroke="#3B2F21" stroke-opacity="0.07" stroke-width="3.11572"/>
<path d="M1244.71 302.512L1262.44 271.822" stroke="#3B2F21" stroke-opacity="0.07" stroke-width="3.11572"/>
<path d="M1262.43 299.1L1277.45 269.08" stroke="#3B2F21" stroke-opacity="0.07" stroke-width="3.11572"/>
<path d="M1277.45 293.648L1290.41 264.999" stroke="#3B2F21" stroke-opacity="0.07" stroke-width="3.11572"/>
<path d="M1292.46 286.824L1306.77 260.901" stroke="#3B2F21" stroke-opacity="0.07" stroke-width="3.11572"/>
<path d="M1311.55 276.589L1319.06 255.449" stroke="#3B2F21" stroke-opacity="0.07" stroke-width="3.11572"/>
<path d="M1123.97 454.621L1151.93 423.246L1134.89 397.323" stroke="#3B2F21" stroke-opacity="0.07" stroke-width="3.11572"/>
<path d="M1139.66 451.895L1165.58 419.834L1145.8 392.541" stroke="#3B2F21" stroke-opacity="0.07" stroke-width="3.11572"/>
<path d="M1156.72 449.169L1179.23 420.52L1158.76 391.185" stroke="#3B2F21" stroke-opacity="0.07" stroke-width="3.11572"/>
<path d="M1170.36 449.169L1192.19 417.108L1171.72 389.144" stroke="#3B2F21" stroke-opacity="0.07" stroke-width="3.11572"/>
<path d="M1185.37 447.113L1209.23 415.052L1185.37 386.403" stroke="#3B2F21" stroke-opacity="0.07" stroke-width="3.11572"/>
<path d="M1202.43 445.072L1222.19 410.97L1196.96 382.991" stroke="#3B2F21" stroke-opacity="0.07" stroke-width="3.11572"/>
<path d="M1216.06 442.345L1237.88 409.599L1215.37 382.991" stroke="#3B2F21" stroke-opacity="0.07" stroke-width="3.11572"/>
<path d="M1234.47 436.207L1252.89 408.244L1228.33 378.909" stroke="#3B2F21" stroke-opacity="0.07" stroke-width="3.11572"/>
<path d="M1252.22 432.11L1267.9 402.09L1244.71 375.498" stroke="#3B2F21" stroke-opacity="0.07" stroke-width="3.11572"/>
<path d="M1269.26 424.601L1281.53 398.009L1258.35 376.183" stroke="#3B2F21" stroke-opacity="0.07" stroke-width="3.11572"/>
<path d="M1294.5 387.773L1268.57 366.633" stroke="#3B2F21" stroke-opacity="0.07" stroke-width="3.11572"/>
<path d="M1299.96 376.183L1283.59 364.577" stroke="#3B2F21" stroke-opacity="0.07" stroke-width="3.11572"/>
<path d="M1305.42 367.319L1294.5 359.81" stroke="#3B2F21" stroke-opacity="0.07" stroke-width="3.11572"/>
<path d="M1309.5 355.713L1300.63 352.986" stroke="#3B2F21" stroke-opacity="0.07" stroke-width="3.11572"/>
<path d="M1312.24 346.163H1306.77" stroke="#3B2F21" stroke-opacity="0.07" stroke-width="3.11572"/>
<path d="M1123.97 440.289L1138.99 422.561L1131.48 408.914" stroke="#3B2F21" stroke-opacity="0.07" stroke-width="3.11572"/>
<path d="M1076.91 520.784L1098.06 492.82L1096.69 488.723" stroke="#3B2F21" stroke-opacity="0.07" stroke-width="3.11572"/>
<path d="M1091.93 518.727L1113.75 490.078L1104.87 477.802" stroke="#3B2F21" stroke-opacity="0.07" stroke-width="3.11572"/>
<path d="M1108.97 516.001L1124.65 488.723L1111.01 466.897" stroke="#3B2F21" stroke-opacity="0.07" stroke-width="3.11572"/>
<path d="M1122.62 514.646L1137.62 489.408L1121.25 465.526" stroke="#3B2F21" stroke-opacity="0.07" stroke-width="3.11572"/>
<path d="M1136.25 513.274L1151.94 487.352L1134.21 463.485" stroke="#3B2F21" stroke-opacity="0.07" stroke-width="3.11572"/>
<path d="M1151.94 511.919L1169.68 487.352L1150.58 460.759" stroke="#3B2F21" stroke-opacity="0.07" stroke-width="3.11572"/>
<path d="M1164.9 509.177L1181.95 486.666L1164.9 459.388" stroke="#3B2F21" stroke-opacity="0.07" stroke-width="3.11572"/>
<path d="M1182.64 505.096L1194.23 482.585L1176.5 458.033" stroke="#3B2F21" stroke-opacity="0.07" stroke-width="3.11572"/>
<path d="M1194.92 501.684L1206.51 479.858L1187.41 455.291" stroke="#3B2F21" stroke-opacity="0.07" stroke-width="3.11572"/>
<path d="M1205.15 499.628L1217.43 478.488L1199.68 453.936" stroke="#3B2F21" stroke-opacity="0.07" stroke-width="3.11572"/>
<path d="M1222.19 490.764L1229.02 476.447L1210.6 452.565" stroke="#3B2F21" stroke-opacity="0.07" stroke-width="3.11572"/>
<path d="M1233.79 481.214L1237.88 468.253L1222.88 450.524" stroke="#3B2F21" stroke-opacity="0.07" stroke-width="3.11572"/>
<path d="M1243.35 474.39L1248.12 460.759L1232.43 446.427" stroke="#3B2F21" stroke-opacity="0.07" stroke-width="3.11572"/>
<path d="M1254.94 464.171L1256.98 455.291L1244.02 443.701" stroke="#3B2F21" stroke-opacity="0.07" stroke-width="3.11572"/>
<path d="M1261.77 450.524V445.741L1252.22 438.934" stroke="#3B2F21" stroke-opacity="0.07" stroke-width="3.11572"/>
<path d="M1267.22 438.248L1261.76 434.836" stroke="#3B2F21" stroke-opacity="0.07" stroke-width="3.11572"/>
<path d="M1043.49 569.202L1048.26 562.378L1037.36 550.788" stroke="#3B2F21" stroke-opacity="0.07" stroke-width="3.11572"/>
<path d="M1055.08 574.67L1062.59 559.652L1047.57 545.335" stroke="#3B2F21" stroke-opacity="0.07" stroke-width="3.11572"/>
<path d="M1068.04 571.928L1074.18 555.57L1052.36 539.197" stroke="#3B2F21" stroke-opacity="0.07" stroke-width="3.11572"/>
<path d="M1082.36 569.887L1089.18 555.57L1065.32 533.745" stroke="#3B2F21" stroke-opacity="0.07" stroke-width="3.11572"/>
<path d="M1094.65 567.846L1102.83 551.473L1078.28 531.003" stroke="#3B2F21" stroke-opacity="0.07" stroke-width="3.11572"/>
<path d="M1110.34 565.79L1115.79 546.706L1093.97 528.277" stroke="#3B2F21" stroke-opacity="0.07" stroke-width="3.11572"/>
<path d="M1120.56 566.476L1128.75 546.021L1111.01 526.922" stroke="#3B2F21" stroke-opacity="0.07" stroke-width="3.11572"/>
<path d="M1130.79 563.749L1141.72 541.924L1128.07 527.592" stroke="#3B2F21" stroke-opacity="0.07" stroke-width="3.11572"/>
<path d="M1146.48 562.379L1153.31 541.924L1140.34 526.922" stroke="#3B2F21" stroke-opacity="0.07" stroke-width="3.11572"/>
<path d="M1160.13 552.844L1163.54 539.197L1149.21 525.55" stroke="#3B2F21" stroke-opacity="0.07" stroke-width="3.11572"/>
<path d="M1169.68 543.965L1172.4 534.415L1160.81 521.453" stroke="#3B2F21" stroke-opacity="0.07" stroke-width="3.11572"/>
<path d="M1179.91 535.1L1181.27 528.277L1171.72 518.727" stroke="#3B2F21" stroke-opacity="0.07" stroke-width="3.11572"/>
<path d="M1190.13 528.277L1181.27 516.001" stroke="#3B2F21" stroke-opacity="0.07" stroke-width="3.11572"/>
<path d="M1195.6 519.412L1187.41 512.589" stroke="#3B2F21" stroke-opacity="0.07" stroke-width="3.11572"/>
<path d="M1204.47 513.275L1199 510.549" stroke="#3B2F21" stroke-opacity="0.07" stroke-width="3.11572"/>
<path d="M1052.36 584.204L1113.07 569.202C1113.07 569.202 1059.87 578.066 1045.54 575.34" stroke="#3B2F21" stroke-opacity="0.07" stroke-width="3.11572"/>
<path d="M1053.73 588.301L1081.01 605.36" stroke="#3B2F21" stroke-opacity="0.07" stroke-width="3.11572"/>
<path d="M1063.28 585.575L1089.87 600.577" stroke="#3B2F21" stroke-opacity="0.07" stroke-width="3.11572"/>
<path d="M1078.28 581.478L1097.38 595.81" stroke="#3B2F21" stroke-opacity="0.07" stroke-width="3.11572"/>
<path d="M1087.14 576.711L1107.61 589.672" stroke="#3B2F21" stroke-opacity="0.07" stroke-width="3.11572"/>
<path d="M1103.51 574.67L1119.89 582.849" stroke="#3B2F21" stroke-opacity="0.07" stroke-width="3.11572"/>
<path d="M1115.79 569.202L1128.07 576.711" stroke="#3B2F21" stroke-opacity="0.07" stroke-width="3.11572"/>
<path d="M1132.17 566.476L1138.99 571.258" stroke="#3B2F21" stroke-opacity="0.07" stroke-width="3.11572"/>
<path d="M1382.48 130.618C1382.48 130.618 1380.44 112.889 1363.38 99.2425C1346.33 85.5956 1336.11 56.9622 1338.83 35.8065C1341.56 14.6663 1359.3 -33.082 1388.62 -33.082C1417.94 -33.082 1497.08 -31.7111 1497.08 -31.7111C1497.08 -31.7111 1520.96 -23.5323 1507.31 -18.0643C1493.67 -12.6117 1497.08 -15.338 1497.08 -15.338" stroke="#3B2F21" stroke-opacity="0.07" stroke-width="3.11572"/>
<path d="M1488.21 -13.297C1488.21 -13.297 1518.22 5.11688 1493.66 24.9017C1493.66 24.9017 1514.81 26.9425 1510.72 38.5485C1510.72 38.5485 1487.54 33.7815 1474.58 39.234C1461.62 44.6865 1458.21 49.4536 1437.75 50.8245C1417.28 52.1954 1413.87 35.1368 1420.01 31.0397" stroke="#3B2F21" stroke-opacity="0.07" stroke-width="3.11572"/>
<path d="M1439.78 37.1775C1439.78 37.1775 1467.74 33.0803 1460.92 5.80224C1454.09 -21.4759 1402.25 -17.3787 1391.34 -9.1999C1380.44 -1.02114 1358.6 19.4491 1364.74 51.5099C1370.87 83.5706 1381.11 84.256 1381.11 84.256" stroke="#3B2F21" stroke-opacity="0.07" stroke-width="3.11572"/>
<path d="M1384.54 108.122C1384.54 108.122 1369.52 73.3353 1401.58 59.6885C1433.64 46.0416 1445.92 75.3761 1445.92 75.3761" stroke="#3B2F21" stroke-opacity="0.07" stroke-width="3.11572"/>
<path d="M1394.09 115.616C1394.09 115.616 1396.14 109.478 1394.77 103.34C1393.4 97.2016 1391.36 86.9665 1398.87 86.9665C1398.87 86.9665 1392.73 79.4576 1403.64 70.5934C1409.09 64.4554 1413.19 76.0459 1413.19 76.0459C1413.19 76.0459 1416.6 67.1817 1425.46 69.2225C1434.33 71.2633 1439.78 77.4168 1440.47 86.9665" stroke="#3B2F21" stroke-opacity="0.07" stroke-width="3.11572"/>
<path d="M1378.4 61.0594C1378.4 61.0594 1368.85 30.3696 1396.82 5.81776C1424.78 -18.7341 1450.7 6.50323 1445.92 15.3674C1441.14 24.2317 1428.18 23.5462 1422.72 20.1345C1417.27 16.7228 1396.8 24.2317 1396.8 42.6456C1396.8 61.0595 1403.62 59.7041 1403.62 59.7041" stroke="#3B2F21" stroke-opacity="0.07" stroke-width="3.11572"/>
<path d="M1523 133.359C1523 133.359 1504.59 106.081 1532.55 94.4753C1532.55 94.4753 1525.04 104.025 1538.69 124.48C1552.34 144.95 1594.62 227.47 1543.47 330.818C1492.31 434.151 1412.52 537.484 1285.65 609.114C1209.94 649.011 1093.3 655.149 1093.3 655.149" stroke="#3B2F21" stroke-opacity="0.07" stroke-width="3.11572"/>
<path d="M1337.82 121.084C1337.82 121.084 1362.37 129.262 1351.12 144.623C1339.88 159.968 1306.1 149.733 1312.24 117.002C1318.38 84.2558 1363.4 99.2735 1363.4 99.2735" stroke="#3B2F21" stroke-opacity="0.07" stroke-width="3.11572"/>
<path d="M1346 160.981C1346 160.981 1362.37 181.451 1341.9 182.463C1321.43 183.492 1315.29 154.843 1331.66 150.745C1348.04 146.648 1361.34 145.636 1372.59 157.912" stroke="#3B2F21" stroke-opacity="0.07" stroke-width="3.11572"/>
<path d="M1387.95 189.629C1387.95 189.629 1378.74 174.285 1364.41 174.285C1350.08 174.285 1338.83 188.601 1346 191.67C1353.17 194.739 1364.41 196.78 1373.62 214.181C1382.83 231.583 1417.61 291.934 1450.36 296.031C1483.11 300.128 1467.75 279.658 1467.75 279.658C1467.75 279.658 1487.19 290.906 1470.81 338.997C1454.44 387.088 1403.28 482.242 1293.81 562.036C1184.34 641.845 1091.23 640.816 1091.23 640.816" stroke="#3B2F21" stroke-opacity="0.07" stroke-width="3.11572"/>
<path d="M1465.7 240.79C1465.7 240.79 1519.93 267.398 1481.05 352.317C1442.16 437.236 1314.28 618.337 1095.32 646.986" stroke="#3B2F21" stroke-opacity="0.07" stroke-width="3.11572"/>
<path d="M1474.91 164.049C1474.91 164.049 1492.29 178.366 1476.95 185.532C1461.6 192.698 1439.09 198.836 1449.33 221.347C1449.33 221.347 1460.58 216.238 1464.67 224.416C1468.77 232.595 1469.78 247.956 1449.33 246.928C1428.87 245.899 1397.15 207.031 1423.75 163.037C1450.34 119.043 1515.83 152.802 1531.18 187.589C1546.52 222.376 1554.72 326.737 1459.56 444.402C1364.41 562.067 1277.45 623.104 1103.51 649.026" stroke="#3B2F21" stroke-opacity="0.07" stroke-width="3.11572"/>
<path d="M1449.33 155.871C1449.33 155.871 1426.82 169.517 1440.47 196.11" stroke="#3B2F21" stroke-opacity="0.07" stroke-width="3.11572"/>
<path d="M1425.46 181.092C1425.46 181.092 1417.95 198.151 1435.01 211.112" stroke="#3B2F21" stroke-opacity="0.07" stroke-width="3.11572"/>
<path d="M1372.26 192.698C1372.26 192.698 1385.91 197.481 1387.95 211.112C1389.99 224.759 1400.91 230.212 1408.42 229.526L1410.46 240.431L1419.33 241.802L1422.74 254.078L1432.97 253.393C1432.97 253.393 1421.38 267.04 1434.33 277.945C1447.29 288.865 1452.74 285.453 1452.74 285.453" stroke="#3B2F21" stroke-opacity="0.07" stroke-width="3.11572"/>
<path d="M1342.93 254.078C1342.93 254.078 1366.47 261.244 1396.13 252.037C1396.13 252.037 1398.17 293.991 1383.85 333.887C1369.54 373.784 1319.39 562.051 1098.41 632.638" stroke="#3B2F21" stroke-opacity="0.07" stroke-width="3.11572"/>
<path d="M1343.96 268.41C1343.96 268.41 1380.78 270.451 1388.98 264.313C1388.98 264.313 1371.59 358.439 1337.82 420.847C1304.06 483.255 1238.57 574.312 1097.38 626.5" stroke="#3B2F21" stroke-opacity="0.07" stroke-width="3.11572"/>
<path d="M1351.11 289.893L1383.85 282.727" stroke="#3B2F21" stroke-opacity="0.07" stroke-width="3.11572"/>
<path d="M1342.93 310.363L1378.74 303.197" stroke="#3B2F21" stroke-opacity="0.07" stroke-width="3.11572"/>
<path d="M1339.86 328.777L1373.62 322.639" stroke="#3B2F21" stroke-opacity="0.07" stroke-width="3.11572"/>
<path d="M1333.72 348.204L1368.51 344.122" stroke="#3B2F21" stroke-opacity="0.07" stroke-width="3.11572"/>
<path d="M1324.52 365.605L1363.38 362.536" stroke="#3B2F21" stroke-opacity="0.07" stroke-width="3.11572"/>
<path d="M1317.35 384.019L1353.16 379.922" stroke="#3B2F21" stroke-opacity="0.07" stroke-width="3.11572"/>
<path d="M1309.17 401.42L1346 399.364" stroke="#3B2F21" stroke-opacity="0.07" stroke-width="3.11572"/>
<path d="M1302.52 416.251L1339.35 415.737" stroke="#3B2F21" stroke-opacity="0.07" stroke-width="3.11572"/>
<path d="M1293.81 429.555L1330.65 432.624" stroke="#3B2F21" stroke-opacity="0.07" stroke-width="3.11572"/>
<path d="M1285.63 447.969L1319.9 449.496" stroke="#3B2F21" stroke-opacity="0.07" stroke-width="3.11572"/>
<path d="M1280.01 463.314H1311.73" stroke="#3B2F21" stroke-opacity="0.07" stroke-width="3.11572"/>
<path d="M1266.7 475.59L1297.91 480.7" stroke="#3B2F21" stroke-opacity="0.07" stroke-width="3.11572"/>
<path d="M1256.98 490.421L1287.17 494.518" stroke="#3B2F21" stroke-opacity="0.07" stroke-width="3.11572"/>
<path d="M1243.68 504.753L1273.87 510.891" stroke="#3B2F21" stroke-opacity="0.07" stroke-width="3.11572"/>
<path d="M1231.4 517.543L1260.05 524.195" stroke="#3B2F21" stroke-opacity="0.07" stroke-width="3.11572"/>
<path d="M1216.57 530.847L1244.71 538.512" stroke="#3B2F21" stroke-opacity="0.07" stroke-width="3.11572"/>
<path d="M1200.71 544.65L1227.32 552.33" stroke="#3B2F21" stroke-opacity="0.07" stroke-width="3.11572"/>
<path d="M1186.9 558.468L1209.41 568.189" stroke="#3B2F21" stroke-opacity="0.07" stroke-width="3.11572"/>
<path d="M1170.54 570.744L1194.06 577.91" stroke="#3B2F21" stroke-opacity="0.07" stroke-width="3.11572"/>
<path d="M1151.09 576.368L1178.2 587.117" stroke="#3B2F21" stroke-opacity="0.07" stroke-width="3.11572"/>
<path d="M1138.82 586.603L1159.79 596.838" stroke="#3B2F21" stroke-opacity="0.07" stroke-width="3.11572"/>
<path d="M1127.04 593.255L1147 603.49" stroke="#3B2F21" stroke-opacity="0.07" stroke-width="3.11572"/>
<path d="M1115.28 600.92L1134.21 611.155" stroke="#3B2F21" stroke-opacity="0.07" stroke-width="3.11572"/>
<path d="M1103 607.572L1118.35 617.293" stroke="#3B2F21" stroke-opacity="0.07" stroke-width="3.11572"/>
<path d="M1104.54 621.904L1091.75 613.71" stroke="#3B2F21" stroke-opacity="0.07" stroke-width="3.11572"/>
<path d="M1344.29 447.112C1344.29 447.112 1372.93 413.696 1382.48 366.633C1382.48 366.633 1383.17 376.868 1394.07 376.183C1404.99 375.497 1414.53 353.002 1395.43 348.219C1395.43 348.219 1382.47 344.122 1378.39 348.219" stroke="#3B2F21" stroke-opacity="0.07" stroke-width="3.11572"/>
<path d="M1392.03 307.964C1392.03 307.964 1415.9 337.299 1415.9 352.987C1415.9 368.674 1407.03 386.403 1387.93 382.321C1387.93 382.321 1366.78 446.442 1333.36 483.27C1299.95 520.098 1264.47 550.804 1264.47 550.804" stroke="#3B2F21" stroke-opacity="0.07" stroke-width="3.11572"/>
<path d="M1198.33 597.165C1198.33 597.165 1277.45 565.12 1331.34 500.313C1385.22 435.506 1392.73 393.226 1401.6 387.088C1410.46 380.95 1426.15 397.323 1416.6 407.558C1407.05 417.793 1404.32 410.285 1404.32 404.832C1404.32 404.832 1394.09 425.972 1384.54 441.66C1374.99 457.347 1339.53 517.372 1287.69 550.788" stroke="#3B2F21" stroke-opacity="0.07" stroke-width="3.11572"/>
<path d="M1379.75 465.526C1379.75 465.526 1440.46 408.914 1435.68 364.577C1435.68 364.577 1437.05 377.538 1425.45 374.127C1413.86 370.715 1415.9 340.025 1430.21 338.654C1444.53 337.299 1443.86 365.262 1443.86 365.262" stroke="#3B2F21" stroke-opacity="0.07" stroke-width="3.11572"/>
<path d="M1460.25 363.892C1460.25 363.892 1465.7 326.378 1454.11 314.102C1442.52 301.827 1428.19 307.279 1430.92 321.611C1430.92 321.611 1432.27 311.376 1424.09 308.65C1424.09 308.65 1445.23 316.159 1436.37 290.236" stroke="#3B2F21" stroke-opacity="0.07" stroke-width="3.11572"/>
<path d="M1442.51 331.846C1442.51 331.846 1421.37 348.889 1407.72 331.161" stroke="#3B2F21" stroke-opacity="0.07" stroke-width="3.11572"/>
<path d="M1419.67 366.633C1419.67 366.633 1407.39 369.702 1411.99 377.881C1416.58 386.06 1422.22 390.671 1424.26 381.464C1424.26 381.464 1432.44 385.047 1428.36 397.323" stroke="#3B2F21" stroke-opacity="0.07" stroke-width="3.11572"/>
<path d="M1408.92 518.057C1408.92 518.057 1478.49 499.129 1512.77 520.612C1547.04 542.095 1576.2 576.882 1575.69 615.766C1575.17 654.65 1540.9 723.71 1463.66 739.055C1463.66 739.055 1451.9 728.82 1471.84 717.572" stroke="#3B2F21" stroke-opacity="0.07" stroke-width="3.11572"/>
<path d="M1462.12 698.629C1462.12 698.629 1423.75 714.488 1431.94 746.206C1440.14 777.924 1478.49 747.234 1457.52 730.861C1457.52 730.861 1443.71 723.695 1440.64 736.485" stroke="#3B2F21" stroke-opacity="0.07" stroke-width="3.11572"/>
<path d="M1431.94 686.867C1431.94 686.867 1396.13 704.767 1397.16 729.832C1398.19 754.898 1413.53 755.413 1425.29 750.801C1437.05 746.19 1435.01 709.876 1407.39 726.764" stroke="#3B2F21" stroke-opacity="0.07" stroke-width="3.11572"/>
<path d="M1428.88 686.353C1428.88 686.353 1395.63 691.977 1382.84 713.973C1382.84 713.973 1398.19 712.431 1396.66 726.764C1395.12 741.08 1376.19 746.72 1358.29 744.663C1340.39 742.623 1322.99 747.218 1322.99 751.315C1322.99 751.315 1315.6 737.03 1331.28 731.671C1331.57 731.562 1331.88 731.468 1332.2 731.375" stroke="#3B2F21" stroke-opacity="0.07" stroke-width="3.11572"/>
<path d="M1320.42 720.127C1320.42 720.127 1297.39 733.945 1296.88 742.638C1296.36 751.331 1311.19 763.607 1318.36 747.748C1325.53 731.889 1304.54 733.93 1306.08 742.638" stroke="#3B2F21" stroke-opacity="0.07" stroke-width="3.11572"/>
<path d="M1295.35 742.124C1295.35 742.124 1290.74 747.748 1278.98 737.513C1267.22 727.277 1259.54 720.625 1254.94 724.723C1254.94 724.723 1268.25 695.559 1292.8 710.904" stroke="#3B2F21" stroke-opacity="0.07" stroke-width="3.11572"/>
<path d="M1319.39 707.835C1319.39 707.835 1310.18 725.221 1293.81 713.973C1277.43 702.726 1303.53 685.838 1306.08 703.738C1306.08 703.738 1306.08 707.835 1300.46 707.835C1300.46 707.835 1315.29 705.795 1317.85 699.143" stroke="#3B2F21" stroke-opacity="0.07" stroke-width="3.11572"/>
<path d="M1305.07 697.616L1345.48 669.979" stroke="#3B2F21" stroke-opacity="0.07" stroke-width="3.11572"/>
<path d="M1366.45 660.259C1366.45 660.259 1347.01 678.673 1327.57 663.842C1308.12 649.011 1327.57 625.472 1338.81 632.124C1350.06 638.776 1349.05 652.594 1338.81 653.607C1328.58 654.619 1334.72 644.914 1334.72 644.914" stroke="#3B2F21" stroke-opacity="0.07" stroke-width="3.11572"/>
<path d="M1396.65 632.638C1396.65 632.638 1381.3 644.914 1365.96 645.428C1350.61 645.942 1337.31 635.193 1348.57 617.293C1358.29 606.544 1379.26 628.541 1361.87 633.666" stroke="#3B2F21" stroke-opacity="0.07" stroke-width="3.11572"/>
<path d="M1368.51 627.528C1368.51 627.528 1381.3 632.139 1391.02 622.418" stroke="#3B2F21" stroke-opacity="0.07" stroke-width="3.11572"/>
<path d="M1399.71 660.259C1399.71 660.259 1357.25 656.161 1343.96 682.77C1330.65 709.378 1343.96 727.792 1355.21 728.804C1366.45 729.833 1370.55 719.597 1370.55 716.014" stroke="#3B2F21" stroke-opacity="0.07" stroke-width="3.11572"/>
<path d="M1399.71 676.632C1399.71 676.632 1378.23 676.118 1375.67 687.879C1373.12 699.641 1374.64 720.112 1361.36 714.986C1348.05 709.876 1353.68 686.851 1361.87 679.171C1370.05 671.491 1382.84 665.867 1396.66 665.353" stroke="#3B2F21" stroke-opacity="0.07" stroke-width="3.11572"/>
<path d="M1427.33 605.531C1427.33 605.531 1388.96 615.252 1406.36 643.387C1406.36 643.387 1387.44 663.857 1401.75 678.688C1401.75 678.688 1417.61 686.368 1424.26 677.146C1424.26 677.146 1429.89 698.629 1462.63 692.491C1495.38 686.353 1524.03 669.466 1524.03 669.466" stroke="#3B2F21" stroke-opacity="0.07" stroke-width="3.11572"/>
<path d="M1473.37 619.848C1473.37 619.848 1458.54 609.099 1447.28 624.459C1436.03 639.804 1446.25 672.55 1468.25 671.008C1490.24 669.466 1529.13 664.87 1534.24 618.835C1539.35 572.801 1511.72 543.124 1485.13 535.957C1458.54 528.791 1425.28 531.346 1408.91 541.581" stroke="#3B2F21" stroke-opacity="0.07" stroke-width="3.11572"/>
<path d="M1367.48 579.437C1387.95 551.302 1460.08 536.471 1491.8 547.719C1523.52 558.967 1525.04 595.296 1513.79 628.042C1502.55 660.788 1467.25 648.512 1465.19 634.18C1463.13 619.848 1476.95 619.349 1476.95 619.349C1476.95 619.349 1494.34 613.725 1492.3 595.311C1490.26 576.898 1473.37 555.415 1424.76 569.731C1376.16 584.048 1314.78 621.406 1287.66 622.932" stroke="#3B2F21" stroke-opacity="0.07" stroke-width="3.11572"/>
<path d="M1097.89 671.007C1097.89 671.007 1164.4 679.186 1206.85 665.384C1249.32 651.565 1292.8 630.083 1304.04 632.637C1315.29 635.192 1328.08 657.189 1305.07 660.772C1291.77 661.286 1290.76 652.594 1291.25 647.468C1291.25 647.468 1272.33 659.23 1257.5 659.23" stroke="#3B2F21" stroke-opacity="0.07" stroke-width="3.11572"/>
<path d="M1106.24 685.839C1106.24 685.839 1152.62 692.491 1215.04 681.227C1277.45 669.98 1295.87 657.688 1295.87 657.688" stroke="#3B2F21" stroke-opacity="0.07" stroke-width="3.11572"/>
<path d="M1304.04 632.638C1304.04 632.638 1347.01 615.252 1376.17 597.337C1405.34 579.421 1445.75 575.854 1463.13 580.449C1480.52 585.045 1484.1 601.418 1471.31 607.058C1458.52 612.682 1444.21 601.434 1452.38 589.672C1452.38 589.672 1444.7 586.603 1435 593.769C1425.28 600.935 1421.69 595.311 1421.69 595.311C1421.69 595.311 1421.69 603.49 1418.11 603.49C1414.53 603.49 1406.86 598.38 1406.86 598.38C1406.86 598.38 1405.84 604.518 1401.24 605.032C1396.64 605.547 1384.87 600.935 1377.7 608.616" stroke="#3B2F21" stroke-opacity="0.07" stroke-width="3.11572"/>
<path d="M853.184 134.03C853.184 134.03 836.125 124.48 840.908 141.538C840.908 141.538 830.673 131.303 819.082 129.948" stroke="#3B2F21" stroke-opacity="0.07" stroke-width="3.11572"/>
<path d="M818.396 121.083L826.591 123.124" stroke="#3B2F21" stroke-opacity="0.07" stroke-width="3.11572"/>
<path d="M841.593 118.342C841.593 118.342 831.357 121.754 836.14 130.618" stroke="#3B2F21" stroke-opacity="0.07" stroke-width="3.11572"/>
<path d="M645.148 159.267C645.148 159.267 615.143 170.187 620.596 196.78C620.596 196.78 619.225 202.232 626.048 201.547C632.872 200.862 632.872 186.545 645.148 190.642" stroke="#3B2F21" stroke-opacity="0.07" stroke-width="3.11572"/>
<path d="M647.876 194.054C647.876 194.054 632.874 198.836 634.229 214.524C635.585 230.212 639.012 226.8 639.012 226.8C639.012 226.8 643.779 212.483 656.74 215.21C656.74 215.21 639.012 235.68 653.328 251.352C653.328 251.352 659.466 228.155 673.799 232.938C673.799 232.938 654.699 246.585 674.484 259.546C674.484 259.546 676.525 241.132 688.801 240.447C688.801 240.447 679.937 253.408 688.116 260.917C688.116 260.917 696.98 244.544 708.586 245.915" stroke="#3B2F21" stroke-opacity="0.07" stroke-width="3.11572"/>
<path d="M711.308 260.902C711.308 260.902 606.277 259.546 599.454 259.546C592.63 259.546 572.861 251.368 577.628 232.938C582.395 214.524 606.963 221.348 604.906 234.293C602.866 247.255 601.495 244.529 601.495 244.529L649.243 247.94H663.56" stroke="#3B2F21" stroke-opacity="0.07" stroke-width="3.11572"/>
<path d="M677.896 247.255H685.39" stroke="#3B2F21" stroke-opacity="0.07" stroke-width="3.11572"/>
<path d="M695.624 279.315C695.624 279.315 682.662 271.807 688.115 260.901C688.115 260.901 675.153 275.904 686.744 290.236C686.744 290.236 672.427 286.139 672.427 277.96C672.427 277.96 661.522 286.139 673.113 302.512" stroke="#3B2F21" stroke-opacity="0.07" stroke-width="3.11572"/>
<path d="M599.456 259.546C599.456 259.546 543.872 261.26 519.32 273.536C494.768 285.812 442.58 301.156 423.154 289.909C403.711 278.661 390.407 262.288 396.545 242.846C402.683 223.404 388.367 215.225 380.172 224.432C371.978 233.639 373.006 227.501 373.006 227.501C373.006 227.501 384.254 211.128 381.185 196.811C378.116 182.494 374.019 178.397 374.019 178.397C374.019 178.397 362.771 188.632 362.771 194.77C362.771 194.77 349.467 159.983 337.191 158.955L324.915 157.927C324.915 157.927 314.68 194.755 321.846 206.018C321.846 206.018 317.749 199.88 308.542 199.88C308.542 199.88 300.363 225.46 311.611 234.667C311.611 234.667 294.225 228.529 291.141 231.598C291.141 231.598 293.181 297.075 366.853 313.448" stroke="#3B2F21" stroke-opacity="0.07" stroke-width="3.11572"/>
<path d="M439.494 306.266C439.494 306.266 356.616 332.875 339.23 181.451" stroke="#3B2F21" stroke-opacity="0.07" stroke-width="3.11572"/>
<path d="M373.006 303.197C373.006 303.197 339.247 298.088 300.363 246.927" stroke="#3B2F21" stroke-opacity="0.07" stroke-width="3.11572"/>
<path d="M421.079 298.072C421.079 298.072 360.712 277.602 383.224 243.843" stroke="#3B2F21" stroke-opacity="0.07" stroke-width="3.11572"/>
<path d="M449.73 330.818C449.73 330.818 392.432 348.204 347.41 334.915C302.388 321.627 279.877 305.238 267.601 305.238C255.325 305.238 272.711 317.514 258.394 320.583C244.077 323.652 221.566 317.514 221.566 290.906C221.566 264.298 270.67 276.589 270.67 276.589C270.67 276.589 220.538 213.153 227.704 151.773C234.871 90.3783 246.118 96.5318 246.118 96.5318" stroke="#3B2F21" stroke-opacity="0.07" stroke-width="3.11572"/>
<path d="M269.658 106.751C269.658 106.751 243.05 156.883 256.354 192.698C269.658 228.514 291.141 265.341 301.376 270.451" stroke="#3B2F21" stroke-opacity="0.07" stroke-width="3.11572"/>
<path d="M364.811 5.4594C364.811 5.4594 408.804 6.48759 431.316 13.6382C453.827 20.7887 457.924 1.36221 449.729 -2.73495C441.535 -6.83212 435.413 -21.1489 446.66 -34.453C457.908 -47.7571 478.378 -36.4938 478.378 -36.4938C478.378 -36.4938 504.987 -52.8669 512.137 -41.6035C519.288 -30.3402 502.93 -27.2868 502.93 -27.2868C502.93 -27.2868 508.04 -10.9137 498.833 4.43121C489.626 19.7761 473.253 44.328 432.328 42.2872C432.328 42.2872 448.701 38.19 464.046 74.0052C479.391 109.82 465.074 144.607 494.736 159.952C524.413 175.297 522.357 146.648 530.551 142.567C538.745 138.485 552.034 147.676 546.924 160.98H574.545C574.545 160.98 585.793 167.118 574.545 176.325C574.545 176.325 610.36 169.159 613.429 196.796C616.498 224.416 588.877 216.238 589.89 207.031C590.903 197.824 600.125 200.893 600.125 200.893C600.125 200.893 587.849 207.031 577.614 207.031H567.379L577.614 221.347C577.614 221.347 564.31 228.514 558.172 227.485C552.034 226.457 544.868 218.278 544.868 218.278C544.868 218.278 559.185 224.416 552.034 233.623C544.883 242.83 548.965 240.79 548.965 240.79C548.965 240.79 498.833 237.721 481.432 225.445C464.046 213.169 439.479 183.491 438.466 128.25" stroke="#3B2F21" stroke-opacity="0.07" stroke-width="3.11572"/>
<path d="M442.579 100.613C442.579 100.613 444.62 148.704 409.833 160.98C375.046 173.256 343.328 170.187 319.804 134.372C309.569 110.833 318.776 92.4189 318.776 92.4189" stroke="#3B2F21" stroke-opacity="0.07" stroke-width="3.11572"/>
<path d="M336.164 91.4064C336.164 91.4064 352.537 97.5444 352.537 111.877C352.537 126.209 356.634 147.692 370.951 147.692C385.268 147.692 424.152 136.444 429.261 102.67C434.371 68.911 425.164 52.5379 413.917 46.3999" stroke="#3B2F21" stroke-opacity="0.07" stroke-width="3.11572"/>
<path d="M451.789 92.4347C451.789 92.4347 444.622 170.187 502.949 184.52C561.259 198.836 583.77 184.52 596.046 191.686" stroke="#3B2F21" stroke-opacity="0.07" stroke-width="3.11572"/>
<path d="M495.781 181.435C495.781 181.435 523.402 185.532 525.458 168.131" stroke="#3B2F21" stroke-opacity="0.07" stroke-width="3.11572"/>
<path d="M455.869 158.94C455.869 158.94 466.104 192.698 509.07 213.169C509.07 213.169 528.512 220.335 533.622 227.485" stroke="#3B2F21" stroke-opacity="0.07" stroke-width="3.11572"/>
<path d="M329.512 92.4189C346.177 92.4189 359.687 78.9088 359.687 62.2432C359.687 45.5776 346.177 32.0675 329.512 32.0675C312.846 32.0675 299.336 45.5776 299.336 62.2432C299.336 78.9088 312.846 92.4189 329.512 92.4189Z" stroke="#3B2F21" stroke-opacity="0.07" stroke-width="3.11572"/>
<path d="M351.508 38.2056C351.508 38.2056 375.047 13.6537 365.825 0.349574C356.602 -12.9545 347.411 -27.2712 360.715 -32.3966C374.019 -37.5064 349.467 -51.8387 331.038 -47.7415C312.624 -43.6443 293.182 -13.9827 306.486 2.39041" stroke="#3B2F21" stroke-opacity="0.07" stroke-width="3.11572"/>
<path d="M323.886 32.0677C323.886 32.0677 332.065 12.6256 298.306 -2.7193C264.547 -18.0642 241.008 -19.0924 241.008 -19.0924" stroke="#3B2F21" stroke-opacity="0.07" stroke-width="3.11572"/>
<path d="M303.432 34.1085C303.432 34.1085 311.611 19.7918 272.742 1.36232C233.858 -17.0516 224.651 -30.3557 238.984 -34.4529C253.3 -38.5501 250.231 -50.826 235.915 -48.7696C221.598 -46.7132 208.294 -23.1895 228.748 -5.80384C249.203 11.5819 260.466 24.886 263.535 32.0521C266.604 39.2183 294.225 64.7983 301.391 51.4942" stroke="#3B2F21" stroke-opacity="0.07" stroke-width="3.11572"/>
<path d="M300.363 59.6884C300.363 59.6884 276.823 65.8264 257.397 44.3435C257.397 44.3435 234.886 50.4814 234.886 69.9235C234.886 89.3656 260.466 79.1305 250.231 90.3938C239.996 101.657 225.679 93.4628 226.692 65.8419C227.72 38.2211 257.381 24.917 257.381 24.917" stroke="#3B2F21" stroke-opacity="0.07" stroke-width="3.11572"/>
<path d="M241.008 81.1714C241.008 81.1714 251.243 75.0335 267.616 82.1996C283.989 89.3658 301.375 72.9927 301.375 72.9927" stroke="#3B2F21" stroke-opacity="0.07" stroke-width="3.11572"/>
<path d="M260.449 79.1305L258.408 105.739C258.408 105.739 266.587 108.808 278.878 106.767" stroke="#3B2F21" stroke-opacity="0.07" stroke-width="3.11572"/>
<path d="M303.433 77.0897C303.433 77.0897 272.743 101.642 274.783 123.124C276.824 144.607 288.088 150.745 274.783 152.802C261.479 154.858 265.577 165.078 271.714 168.147C277.852 171.216 311.611 178.382 316.737 162.009C321.846 145.636 323.903 138.469 323.903 138.469" stroke="#3B2F21" stroke-opacity="0.07" stroke-width="3.11572"/>
<path d="M313.653 89.3657C313.653 89.3657 300.349 98.5727 303.418 114.946C306.487 131.319 318.763 150.761 308.527 158.94C298.292 167.118 275.781 167.118 275.781 167.118" stroke="#3B2F21" stroke-opacity="0.07" stroke-width="3.11572"/>
<path d="M346.396 87.3094C346.396 87.3094 360.713 93.4474 364.81 108.792C368.908 124.137 397.557 145.62 413.914 115.958C430.287 86.2812 411.873 92.4192 410.845 96.5163C409.817 100.614 397.541 98.5571 391.403 84.2404C385.265 69.9237 366.851 63.7702 366.851 63.7702C366.851 63.7702 392.431 66.8391 391.403 34.0929C391.403 34.0929 367.864 20.7888 354.575 35.1211" stroke="#3B2F21" stroke-opacity="0.07" stroke-width="3.11572"/>
<path d="M335.152 32.0676C335.152 32.0676 341.29 11.5974 327.986 -2.71932C314.682 -17.036 326.958 -38.5345 336.165 -40.5753" stroke="#3B2F21" stroke-opacity="0.07" stroke-width="3.11572"/>
<path d="M355.604 81.1714C355.604 81.1714 367.879 96.5163 378.115 107.78C388.35 119.043 403.695 125.165 406.764 113.918" stroke="#3B2F21" stroke-opacity="0.07" stroke-width="3.11572"/>
<path d="M685.062 277.617C685.062 277.617 575.591 265.341 538.748 340.025C538.748 340.025 521.362 331.846 541.816 307.279" stroke="#3B2F21" stroke-opacity="0.07" stroke-width="3.11572"/>
<path d="M553.065 293.99C553.065 293.99 498.836 314.461 509.071 354.357C519.306 394.254 536.692 405.517 528.513 414.724C528.513 414.724 521.347 403.477 513.168 412.684C504.989 421.891 522.375 438.264 536.707 424.96C551.024 411.655 552.052 388.132 552.052 388.132C552.052 388.132 581.73 378.925 569.438 357.442C557.162 335.959 535.679 350.276 545.899 359.483C545.899 359.483 524.416 346.179 531.582 324.696" stroke="#3B2F21" stroke-opacity="0.07" stroke-width="3.11572"/>
<path d="M509.07 332.859C509.07 332.859 498.835 353.329 506.001 391.17C513.167 429.026 486.559 445.399 486.559 445.399C486.559 445.399 524.415 473.02 536.69 424.929" stroke="#3B2F21" stroke-opacity="0.07" stroke-width="3.11572"/>
<path d="M518.291 321.611C518.291 321.611 449.745 361.508 444.62 415.737C439.494 469.966 481.447 484.283 481.447 484.283" stroke="#3B2F21" stroke-opacity="0.07" stroke-width="3.11572"/>
<path d="M435.413 443.358C435.413 443.358 448.717 501.669 479.407 489.393C479.407 489.393 479.407 474.048 498.849 479.158C518.291 484.267 515.222 523.151 493.739 528.261C472.256 533.371 440.538 520.083 432.344 489.377" stroke="#3B2F21" stroke-opacity="0.07" stroke-width="3.11572"/>
<path d="M492.368 300.471C492.368 300.471 422.794 345.493 402.339 375.498C381.884 405.502 368.237 409.599 366.867 405.502C365.496 401.405 365.496 394.581 365.496 394.581C365.496 394.581 336.847 386.403 339.573 410.954C339.573 410.954 319.118 430.054 324.571 440.974C330.023 451.879 342.315 460.074 345.041 438.248C345.041 438.248 362.769 432.796 372.319 430.069C381.869 427.343 402.339 413.696 403.694 402.791" stroke="#3B2F21" stroke-opacity="0.07" stroke-width="3.11572"/>
<path d="M443.252 365.948C443.252 365.948 400.956 428.698 405.053 462.8C409.15 496.902 426.879 503.725 426.879 516.001C426.879 528.277 421.426 520.098 421.426 520.098C421.426 520.098 439.17 543.295 426.879 543.295C414.587 543.295 394.133 544.665 392.777 502.37C392.777 502.37 400.956 586.946 429.605 611.498" stroke="#3B2F21" stroke-opacity="0.07" stroke-width="3.11572"/>
<path d="M387.322 422.561C387.322 422.561 340.259 533.059 422.109 638.09" stroke="#3B2F21" stroke-opacity="0.07" stroke-width="3.11572"/>
<path d="M418.012 410.97C418.012 410.97 418.012 470.309 425.521 505.781C433.03 541.254 444.62 618.337 411.204 659.931C377.788 701.542 363.456 668.11 366.868 665.384C366.868 665.384 384.596 674.248 384.596 654.463C384.596 634.679 367.553 644.914 366.868 646.954C366.868 646.954 385.281 636.719 377.788 603.989C377.788 603.989 327.999 613.538 330.725 659.916C333.451 706.293 370.965 704.253 370.965 704.253C370.965 704.253 319.119 739.725 290.47 717.214C274.783 700.841 294.567 694.703 294.567 694.703C294.567 694.703 272.742 674.233 265.233 696.058C265.233 696.058 245.448 665.353 220.896 687.194C202.482 704.938 224.993 715.158 224.993 715.158C224.993 715.158 229.091 702.882 242.737 704.922" stroke="#3B2F21" stroke-opacity="0.07" stroke-width="3.11572"/>
<path d="M233.856 707.664C233.856 707.664 236.582 725.408 253.641 729.49C253.641 729.49 126.769 727.434 101.531 594.439" stroke="#3B2F21" stroke-opacity="0.07" stroke-width="3.11572"/>
<path d="M39.4531 531.689C39.4531 531.689 73.5546 560.338 80.3781 594.439C87.2015 628.541 97.4366 694.703 184.739 734.958C272.041 775.197 415.287 752.702 454.155 614.224C454.155 614.224 463.705 564.435 454.155 519.413" stroke="#3B2F21" stroke-opacity="0.07" stroke-width="3.11572"/>
<path d="M381.872 695.388C381.872 695.388 330.712 687.88 355.949 633.993" stroke="#3B2F21" stroke-opacity="0.07" stroke-width="3.11572"/>
<path d="M277.51 729.49C277.51 729.49 263.863 720.626 259.781 711.761" stroke="#3B2F21" stroke-opacity="0.07" stroke-width="3.11572"/>
<path d="M76.9648 552.844V551.473" stroke="#3B2F21" stroke-opacity="0.07" stroke-width="3.11572"/>
<path d="M98.1215 501.684C85.1601 524.195 81.7484 548.061 81.7484 548.061C81.7484 548.061 70.8278 525.55 34 503.039" stroke="#3B2F21" stroke-opacity="0.07" stroke-width="3.11572"/>
<path d="M102.889 552.159C102.889 552.159 98.1068 531.688 119.932 514.645" stroke="#3B2F21" stroke-opacity="0.07" stroke-width="3.11572"/>
<path d="M139.047 453.25C139.047 453.25 175.189 428.013 205.895 425.972C236.584 423.931 229.761 397.323 216.13 397.323C202.498 397.323 208.621 374.127 229.091 377.538C249.561 380.95 294.568 401.42 252.958 423.246C252.958 423.246 321.846 431.425 350.495 494.175C379.144 556.926 355.948 620.362 310.925 641.502C265.903 662.642 211.347 629.912 206.564 614.894C201.782 599.876 202.467 593.068 202.467 593.068" stroke="#3B2F21" stroke-opacity="0.07" stroke-width="3.11572"/>
<path d="M218.841 571.928C218.841 571.928 246.119 571.928 250.901 591.713C255.684 611.498 256.354 628.541 282.277 626.5C308.199 624.459 355.262 581.478 340.26 520.768C325.258 460.058 212.033 415.052 158.146 464.155" stroke="#3B2F21" stroke-opacity="0.07" stroke-width="3.11572"/>
<path d="M219.524 566.475C219.524 582.677 205.176 595.81 187.463 595.81C169.75 595.81 155.402 582.677 155.402 566.475C155.402 550.274 169.75 537.141 187.463 537.141C205.176 537.141 219.524 550.274 219.524 566.475Z" stroke="#3B2F21" stroke-opacity="0.07" stroke-width="3.11572"/>
<path d="M158.147 554.885C154.735 554.885 137.676 554.199 130.868 533.745C124.045 513.274 113.81 510.548 91.9843 495.546C70.1587 480.544 53.1001 446.442 55.1565 423.931C57.2129 401.42 88.5726 408.929 86.5318 424.617C84.491 440.304 72.2151 431.44 72.2151 431.44C72.2151 431.44 68.8033 443.031 89.9435 448.499C111.084 453.951 128.142 448.499 149.968 460.089C171.793 471.68 192.934 494.191 180.658 537.156" stroke="#3B2F21" stroke-opacity="0.07" stroke-width="3.11572"/>
<path d="M68.1016 435.522C68.1016 435.522 70.1424 456.662 99.4768 472.35C128.811 488.037 159.501 507.137 167.01 542.609" stroke="#3B2F21" stroke-opacity="0.07" stroke-width="3.11572"/>
<path d="M175.191 539.197C175.191 539.197 179.973 526.236 163.6 507.822C147.227 489.408 116.537 471.664 116.537 471.664" stroke="#3B2F21" stroke-opacity="0.07" stroke-width="3.11572"/>
<path d="M178.602 484.626C178.602 484.626 190.192 458.703 218.841 466.897C247.49 475.076 247.49 496.232 235.9 503.04" stroke="#3B2F21" stroke-opacity="0.07" stroke-width="3.11572"/>
<path d="M209.306 543.964C209.306 543.964 219.542 534.415 218.856 520.098C218.171 505.781 231.132 492.134 231.132 492.134" stroke="#3B2F21" stroke-opacity="0.07" stroke-width="3.11572"/>
<path d="M219.524 484.626C219.524 484.626 197.698 483.94 192.915 496.216C192.915 496.216 205.191 520.768 187.463 537.141" stroke="#3B2F21" stroke-opacity="0.07" stroke-width="3.11572"/>
<path d="M130.852 535.786C130.852 535.786 100.162 546.706 96.7506 560.338C93.3388 573.984 87.2009 599.222 113.124 601.262C120.633 603.303 120.633 584.204 120.633 584.204C120.633 584.204 115.18 580.107 132.223 584.889C149.266 589.672 160.872 581.478 160.872 581.478" stroke="#3B2F21" stroke-opacity="0.07" stroke-width="3.11572"/>
<path d="M155.419 562.378C155.419 562.378 141.102 563.734 134.949 559.652C128.795 555.57 126.085 550.788 121.987 550.788C117.89 550.788 100.847 566.475 106.985 578.751" stroke="#3B2F21" stroke-opacity="0.07" stroke-width="3.11572"/>
<path d="M145.869 585.575C145.869 585.575 128.125 605.36 136.32 628.541C136.32 628.541 159.516 632.638 172.477 620.362" stroke="#3B2F21" stroke-opacity="0.07" stroke-width="3.11572"/>
<path d="M175.875 593.769C175.875 593.769 168.366 612.869 172.463 625.83C176.56 638.791 168.366 641.518 168.366 641.518C168.366 641.518 177.916 634.009 166.995 633.339C156.09 632.653 145.169 642.203 159.486 656.535C173.803 670.868 212.687 659.947 220.196 651.083C227.705 642.219 227.705 634.71 227.705 634.71" stroke="#3B2F21" stroke-opacity="0.07" stroke-width="3.11572"/>
<path d="M193.602 595.81C193.602 595.81 186.093 617.636 210.661 636.735C210.661 636.735 200.425 655.149 180.656 653.778" stroke="#3B2F21" stroke-opacity="0.07" stroke-width="3.11572"/>
<path d="M220.211 515.316C220.211 515.316 237.27 509.178 256.369 517.356C256.369 517.356 258.924 537.889 249.764 549.697C249.483 550.071 249.172 550.43 248.86 550.772" stroke="#3B2F21" stroke-opacity="0.07" stroke-width="3.11572"/>
<path d="M214.758 552.159C214.758 552.159 242.036 543.295 259.78 550.118C277.508 556.941 275.468 553.53 275.468 553.53C275.468 553.53 263.192 548.763 271.37 534.43C279.549 520.114 307.528 551.473 292.511 574.67C277.508 597.866 250.9 591.728 250.9 591.728" stroke="#3B2F21" stroke-opacity="0.07" stroke-width="3.11572"/>
<path d="M219.523 566.476C219.523 566.476 243.405 550.103 262.489 580.122C262.489 580.122 285 576.711 285.67 558.297" stroke="#3B2F21" stroke-opacity="0.07" stroke-width="3.11572"/>
<path d="M671.068 541.924C671.068 541.924 669.713 505.081 635.596 494.176C601.494 483.271 554.431 490.078 556.472 527.592C558.513 565.105 593.985 562.379 605.576 566.476C617.166 570.573 626.046 586.93 622.634 596.48C619.223 606.03 615.811 610.797 602.85 612.853C589.888 614.894 569.433 608.772 559.884 589.672C550.334 570.573 536.687 545.336 544.196 518.058" stroke="#3B2F21" stroke-opacity="0.07" stroke-width="3.11572"/>
<path d="M555.12 579.437C555.12 579.437 566.041 612.853 547.611 626.5C529.197 640.147 504.646 621.733 508.727 601.948C512.809 582.163 516.906 590.358 523.044 586.26C529.182 582.163 529.182 568.516 524.415 549.433C519.632 530.333 514.865 498.958 548.281 477.818C581.697 456.678 602.853 455.992 617.17 462.13C617.17 462.13 612.387 439.619 608.305 421.205C604.224 402.791 612.403 379.595 619.226 372.101C626.05 364.593 626.05 357.099 626.05 357.099C626.05 357.099 640.366 357.785 642.423 367.334C642.423 367.334 659.481 355.744 684.033 353.018" stroke="#3B2F21" stroke-opacity="0.07" stroke-width="3.11572"/>
<path d="M628.105 445.741C628.105 445.741 619.241 425.287 624.008 407.543C628.79 389.799 630.831 378.208 630.146 371.385" stroke="#3B2F21" stroke-opacity="0.07" stroke-width="3.11572"/>
<path d="M650.6 492.82C650.6 492.82 624.693 473.721 637.639 430.069C650.6 386.418 688.799 361.851 690.154 355.043C691.51 348.219 686.743 341.396 693.566 338.67C700.389 335.944 716.762 343.437 708.568 363.222C700.389 383.006 681.96 389.144 681.96 389.144C681.96 389.144 714.021 405.517 692.881 424.617C671.74 443.716 669.7 417.793 658.093 434.167C646.503 450.54 671.74 487.367 684.016 505.781C696.292 524.195 702.43 548.062 696.978 561.708" stroke="#3B2F21" stroke-opacity="0.07" stroke-width="3.11572"/>
<path d="M645.148 439.603C645.148 439.603 649.245 390.484 684.718 406.187" stroke="#3B2F21" stroke-opacity="0.07" stroke-width="3.11572"/>
<path d="M450.073 632.637C450.073 632.637 458.268 651.051 480.093 649.696C480.093 649.696 475.996 630.597 499.878 632.637C509.428 632.637 508.057 649.696 508.057 649.696C508.057 649.696 523.059 637.42 533.98 649.011C544.9 660.601 538.077 679.7 538.077 679.7C538.077 679.7 529.898 661.972 521.704 661.972C521.704 661.972 531.939 666.755 521.704 672.207C511.468 677.66 501.919 679.031 489.643 672.893C489.643 672.893 510.783 688.58 536.02 687.895C561.258 687.209 586.495 676.974 592.633 673.578C592.633 673.578 609.676 687.225 626.734 678.361C626.734 678.361 611.047 699.501 573.534 707.695C536.02 715.874 538.747 711.792 538.747 711.792C538.747 711.792 570.122 724.068 553.063 736.344C536.005 748.62 514.865 737.699 519.647 730.206C524.43 722.713 531.238 726.125 522.373 717.245C513.509 708.381 455.526 682.458 441.879 661.318" stroke="#3B2F21" stroke-opacity="0.07" stroke-width="3.11572"/>
<path d="M609.006 696.759C609.006 696.759 617.185 713.132 639.01 710.406C660.836 707.68 678.564 694.033 681.29 679.716" stroke="#3B2F21" stroke-opacity="0.07" stroke-width="3.11572"/>
<path d="M677.209 619.676C677.209 619.676 695.623 601.948 705.858 608.771C716.093 615.594 712.681 638.106 731.095 642.187C749.509 646.284 787.022 653.092 806.807 676.974C826.592 700.856 822.495 713.802 810.904 715.858C799.314 717.899 783.626 709.72 798.628 693.347C798.628 693.347 795.217 686.524 776.117 691.306C757.018 696.089 698.364 701.542 677.894 674.264C657.424 646.985 664.247 635.379 669.03 631.968C673.813 628.556 677.209 619.692 677.209 619.692V619.676Z" stroke="#3B2F21" stroke-opacity="0.07" stroke-width="3.11572"/>
<path d="M640.379 637.421C640.379 637.421 630.143 640.832 630.143 651.068C630.143 661.303 640.379 680.402 633.555 688.581C626.732 696.76 620.594 694.719 620.594 694.719" stroke="#3B2F21" stroke-opacity="0.07" stroke-width="3.11572"/>
<path d="M654.699 636.735C654.699 636.735 644.464 647.656 654.699 657.205C664.934 666.755 673.113 682.443 658.796 690.621C644.48 698.8 636.971 697.445 636.971 697.445" stroke="#3B2F21" stroke-opacity="0.07" stroke-width="3.11572"/>
<path d="M627.419 577.396C627.419 577.396 628.104 556.926 613.102 550.788C598.1 544.65 596.729 520.784 622.652 522.824" stroke="#3B2F21" stroke-opacity="0.07" stroke-width="3.11572"/>
<path d="M680.621 599.907C680.621 599.907 703.802 595.81 718.134 597.181C732.451 598.552 729.055 574.67 720.861 568.532" stroke="#3B2F21" stroke-opacity="0.07" stroke-width="3.11572"/>
<path d="M643.108 585.575C643.108 585.575 651.302 570.573 643.793 558.297C636.285 546.021 641.067 537.157 641.067 537.157C641.067 537.157 654.714 543.98 653.343 529.648C651.972 515.331 621.968 504.41 608.321 513.275C594.674 522.139 585.14 543.965 586.495 560.338" stroke="#3B2F21" stroke-opacity="0.07" stroke-width="3.11572"/>
<path d="M666.972 590.357C666.972 590.357 689.483 573.984 678.562 543.295C678.562 543.295 651.269 541.254 642.404 555.57" stroke="#3B2F21" stroke-opacity="0.07" stroke-width="3.11572"/>
<path d="M678.58 576.025C678.58 576.025 694.268 569.202 705.858 569.202C717.449 569.202 707.229 562.378 707.229 559.652C707.229 556.926 709.27 547.376 721.546 552.829C733.822 558.281 748.824 587.616 732.451 606.03C723.587 615.579 710.625 616.95 710.625 616.95" stroke="#3B2F21" stroke-opacity="0.07" stroke-width="3.11572"/>
<path d="M628.775 626.5C628.775 626.5 622.637 641.502 609.676 644.228C596.714 646.955 588.536 642.873 579.671 646.955C570.807 651.052 564.669 657.875 564.669 657.875C564.669 657.875 577.631 659.916 570.122 668.11C562.613 676.289 542.158 669.466 545.57 642.873C548.982 616.265 569.436 610.812 579.671 611.498" stroke="#3B2F21" stroke-opacity="0.07" stroke-width="3.11572"/>
<path d="M593.99 646.97L591.264 672.207" stroke="#3B2F21" stroke-opacity="0.07" stroke-width="3.11572"/>
<path d="M516.922 591.027C516.922 591.027 520.334 607.4 529.883 598.536C539.433 589.672 538.062 584.219 538.062 584.219" stroke="#3B2F21" stroke-opacity="0.07" stroke-width="3.11572"/>
<path d="M677.816 617.573C674.062 631.531 657.923 639.336 641.799 634.99C625.659 630.659 615.627 615.812 619.381 601.854C623.136 587.896 639.275 580.091 655.399 584.437C671.538 588.784 681.586 603.614 677.816 617.573Z" stroke="#3B2F21" stroke-opacity="0.07" stroke-width="3.11572"/>
<path d="M678.58 630.597C678.58 630.597 692.897 655.834 727.014 663.343C761.115 670.852 784.982 675.619 791.805 681.757" stroke="#3B2F21" stroke-opacity="0.07" stroke-width="3.11572"/>
<path d="M675.168 636.735C675.168 636.735 679.265 655.834 702.446 665.384C725.643 674.934 739.959 672.893 739.959 672.893" stroke="#3B2F21" stroke-opacity="0.07" stroke-width="3.11572"/>
</g>
<defs>
<clipPath id="clip0_134_16317">
<rect width="1440" height="760" fill="white"/>
</clipPath>
</defs>
</svg>
